<svg width="17" height="16" viewBox="0 0 17 16" fill="none" xmlns="http://www.w3.org/2000/svg">
<path d="M5.22327 2.90178C5.22327 2.13218 5.52899 1.3941 6.07318 0.849911C6.61737 0.305722 7.35545 0 8.12505 0C8.89465 0 9.63273 0.305722 10.1769 0.849911C10.7211 1.3941 11.0268 2.13218 11.0268 2.90178C11.0268 3.67138 10.7211 4.40946 10.1769 4.95365C9.63273 5.49783 8.89465 5.80356 8.12505 5.80356C7.35545 5.80356 6.61737 5.49783 6.07318 4.95365C5.52899 4.40946 5.22327 3.67138 5.22327 2.90178ZM6.38398 6.96427C5.92222 6.96427 5.47937 7.1477 5.15286 7.47422C4.82635 7.80073 4.64291 8.24358 4.64291 8.70534V11.6071C4.64291 12.5306 5.00978 13.4163 5.66281 14.0694C6.31583 14.7224 7.20153 15.0892 8.12505 15.0892C9.04857 15.0892 9.93426 14.7224 10.5873 14.0694C11.2403 13.4163 11.6072 12.5306 11.6072 11.6071V8.70534C11.6072 8.24358 11.4237 7.80073 11.0972 7.47422C10.7707 7.1477 10.3279 6.96427 9.86612 6.96427H6.38398ZM3.5472 8.09016C3.50368 8.29232 3.48189 8.49855 3.4822 8.70534V11.6071C3.48209 12.2283 3.60664 12.8433 3.84848 13.4155C4.09032 13.9877 4.44454 14.5055 4.89015 14.9384L4.77407 14.9709C3.88227 15.2095 2.93222 15.0842 2.13277 14.6225C1.33332 14.1609 0.749903 13.4007 0.510782 12.509L0.0592651 10.826C0.000115801 10.6051 -0.0149495 10.3747 0.0149293 10.148C0.0448081 9.92136 0.119046 9.70277 0.233404 9.50478C0.347761 9.30678 0.499999 9.13324 0.681425 8.99408C0.86285 8.85492 1.06991 8.75286 1.29078 8.69373L3.5472 8.09016ZM11.3588 14.9384C11.8046 14.5056 12.159 13.9878 12.4011 13.4156C12.6431 12.8434 12.7679 12.2284 12.7679 11.6071V8.70534C12.7671 8.49331 12.7455 8.28825 12.7029 8.09016L14.9582 8.69373C15.1792 8.75286 15.3863 8.85496 15.5678 8.9942C15.7494 9.13343 15.9017 9.30708 16.016 9.50521C16.1304 9.70334 16.2046 9.92206 16.2344 10.1489C16.2642 10.3757 16.249 10.6062 16.1897 10.8271L15.7393 12.509C15.6184 12.9604 15.4078 13.3828 15.1201 13.7511C14.8325 14.1194 14.4736 14.426 14.065 14.6527C13.6563 14.8794 13.2063 15.0215 12.7415 15.0706C12.2768 15.1197 11.8058 15.0747 11.3588 14.9384ZM6.87684e-05 4.64285C6.87684e-05 4.02717 0.244647 3.4367 0.679998 3.00135C1.11535 2.566 1.70581 2.32142 2.32149 2.32142C2.93717 2.32142 3.52763 2.566 3.96299 3.00135C4.39834 3.4367 4.64291 4.02717 4.64291 4.64285C4.64291 5.25853 4.39834 5.84899 3.96299 6.28434C3.52763 6.71969 2.93717 6.96427 2.32149 6.96427C1.70581 6.96427 1.11535 6.71969 0.679998 6.28434C0.244647 5.84899 6.87684e-05 5.25853 6.87684e-05 4.64285ZM11.6072 4.64285C11.6072 4.02717 11.8518 3.4367 12.2871 3.00135C12.7225 2.566 13.3129 2.32142 13.9286 2.32142C14.5443 2.32142 15.1347 2.566 15.5701 3.00135C16.0054 3.4367 16.25 4.02717 16.25 4.64285C16.25 5.25853 16.0054 5.84899 15.5701 6.28434C15.1347 6.71969 14.5443 6.96427 13.9286 6.96427C13.3129 6.96427 12.7225 6.71969 12.2871 6.28434C11.8518 5.84899 11.6072 5.25853 11.6072 4.64285Z" fill="black"/>
</svg>
