<svg width="25" height="25" viewBox="0 0 25 25" fill="none" xmlns="http://www.w3.org/2000/svg">
<path d="M20.1923 22.5425H4.80769C1.70769 22.5425 0 20.8348 0 17.7348V6.19636C0 3.09636 1.70769 1.38867 4.80769 1.38867H20.1923C23.2923 1.38867 25 3.09636 25 6.19636V17.7348C25 20.8348 23.2923 22.5425 20.1923 22.5425ZM4.80769 3.31175C2.7859 3.31175 1.92308 4.17457 1.92308 6.19636V17.7348C1.92308 19.7566 2.7859 20.6194 4.80769 20.6194H20.1923C22.2141 20.6194 23.0769 19.7566 23.0769 17.7348V6.19636C23.0769 4.17457 22.2141 3.31175 20.1923 3.31175H4.80769ZM13.8193 12.8361L20.1166 8.25661C20.546 7.94508 20.641 7.34253 20.3281 6.91304C20.0166 6.48483 19.4168 6.38739 18.9848 6.70149L12.6872 11.281C12.5744 11.363 12.4244 11.363 12.3116 11.281L6.014 6.70149C5.58066 6.38739 4.98214 6.48612 4.6706 6.91304C4.35778 7.34253 4.4527 7.94379 4.88219 8.25661L11.1795 12.8374C11.5743 13.1246 12.0372 13.2669 12.4987 13.2669C12.9603 13.2669 13.4257 13.1233 13.8193 12.8361Z" fill="white"/>
</svg>
