<svg width="24" height="24" viewBox="0 0 24 24" fill="none" xmlns="http://www.w3.org/2000/svg">
<path d="M12 0C5.38047 0 0 5.38047 0 12C0 17.9498 4.26419 22.9284 10.1247 23.8549C10.3702 23.8995 10.6158 23.8214 10.7944 23.6651C10.9842 23.5088 11.0846 23.2744 11.0846 23.0288V15.3488C11.0846 14.8912 10.7051 14.5116 10.2474 14.5116H8.38325V12.8372H10.2474C10.7051 12.8372 11.0846 12.4577 11.0846 12V9.54419C11.0846 6.73117 12.9265 6.13953 14.467 6.13953C15.0586 6.13953 15.6726 6.19536 16.1302 6.25117V7.32279H15.5609C13.92 7.32279 12.9042 8.31627 12.9042 9.90139V12C12.9042 12.4577 13.2837 12.8372 13.7414 12.8372H15.9963L15.7395 14.5116H13.7414C13.2837 14.5116 12.9042 14.8912 12.9042 15.3488V23.0288C12.9042 23.2744 13.0158 23.5088 13.1944 23.6651C13.3507 23.7991 13.5405 23.8661 13.7414 23.8661C13.786 23.8661 13.8307 23.8661 13.8753 23.8661C19.747 22.9507 24 17.9609 24 12.0112C24 5.39162 18.6195 0.0111567 12 0.0111567V0ZM14.5786 22.0019V16.186H16.4651C16.8781 16.186 17.2354 15.8847 17.2912 15.4716L17.7935 12.1228C17.827 11.8772 17.76 11.6316 17.6037 11.453C17.4474 11.2744 17.213 11.1628 16.9674 11.1628H14.5786V9.90139C14.5786 9.25395 14.8577 8.99721 15.5609 8.99721H16.9674C17.4251 8.99721 17.8046 8.61767 17.8046 8.16V5.51442C17.8046 5.1014 17.5144 4.75535 17.1126 4.68837C17.0567 4.68837 15.7507 4.45396 14.4781 4.45396C11.3637 4.45396 9.4214 6.39627 9.4214 9.53302V11.1516H7.55721C7.09954 11.1516 6.72 11.5312 6.72 11.9888V15.3377C6.72 15.7954 7.09954 16.1749 7.55721 16.1749H9.4214V21.9907C4.87814 20.8298 1.67442 16.7777 1.67442 11.9888C1.67442 6.29582 6.30698 1.66326 12 1.66326C17.693 1.66326 22.3256 6.29582 22.3256 11.9888C22.3256 16.7777 19.1219 20.8298 14.5786 21.9907V22.0019Z" fill="white"/>
</svg>
