<svg width="33" height="33" viewBox="0 0 33 33" fill="none" xmlns="http://www.w3.org/2000/svg">
<g clip-path="url(#clip0_326_30)">
<path d="M22.8158 23.8332H30.0208C29.4158 15.849 25.9783 10.8898 21.5692 7.9565L23.5766 3.57484C23.6373 3.4358 23.6626 3.28388 23.6501 3.13269C23.6376 2.9815 23.5878 2.83577 23.5051 2.70858C23.4224 2.58138 23.3095 2.4767 23.1764 2.4039C23.0433 2.33111 22.8942 2.29249 22.7425 2.2915H10.175C10.0233 2.29249 9.8742 2.33111 9.7411 2.4039C9.608 2.4767 9.49505 2.58138 9.41237 2.70858C9.3297 2.83577 9.27988 2.9815 9.26739 3.13269C9.2549 3.28388 9.28013 3.4358 9.34082 3.57484L10.4408 5.95817H19.7175L18.8925 7.7915H17.1967C17.714 9.18432 18.0947 10.6242 18.3333 12.0907C18.4864 13.0006 18.5843 13.9189 18.6266 14.8407L17.1783 15.8582C17.1824 14.6725 17.0843 13.4887 16.885 12.3198C16.632 10.7642 16.1951 9.24405 15.5833 7.7915H14.6667C13.82 8.8599 13.0598 9.99404 12.3933 11.1832C11.8556 12.203 11.399 13.2635 11.0275 14.3548L9.77165 13.5207C10.139 12.466 10.5896 11.4423 11.1192 10.459C11.6553 9.53753 12.2429 8.64695 12.8792 7.7915H11.275L11.3483 7.94734C6.48998 11.1832 2.79582 16.8665 2.79582 26.354C2.78343 26.5534 2.81068 26.7534 2.876 26.9422C2.94132 27.131 3.04341 27.3051 3.17638 27.4542C3.30934 27.6034 3.47054 27.7247 3.65067 27.8112C3.83079 27.8977 4.02628 27.9477 4.22582 27.9582H11.5592C11.2443 27.6304 11.0268 27.2215 10.9313 26.7772C10.8357 26.3329 10.8657 25.8707 11.0179 25.4425C11.1702 25.0143 11.4387 24.6369 11.7933 24.3527C12.1479 24.0684 12.5747 23.8885 13.0258 23.8332C12.8063 23.4609 12.6893 23.037 12.6867 22.6048C12.6867 21.9484 12.9474 21.3189 13.4116 20.8547C13.8757 20.3906 14.5052 20.1298 15.1617 20.1298H20.6617C21.3181 20.1298 21.9476 20.3906 22.4117 20.8547C22.8759 21.3189 23.1366 21.9484 23.1366 22.6048C23.1414 23.0356 23.0306 23.4597 22.8158 23.8332Z" fill="#47C88A"/>
<path d="M19.8 26.1247C19.8 25.8816 19.7034 25.6484 19.5315 25.4765C19.3596 25.3046 19.1264 25.208 18.8833 25.208H13.3833C13.1402 25.208 12.907 25.3046 12.7351 25.4765C12.5632 25.6484 12.4666 25.8816 12.4666 26.1247C12.4666 26.3678 12.5632 26.6009 12.7351 26.7729C12.907 26.9448 13.1402 27.0413 13.3833 27.0413H18.8833C19.1264 27.0413 19.3596 26.9448 19.5315 26.7729C19.7034 26.6009 19.8 26.3678 19.8 26.1247Z" fill="#47C88A"/>
<path d="M20.6616 21.5415H15.1616C14.9185 21.5415 14.6854 21.6381 14.5135 21.81C14.3415 21.9819 14.245 22.2151 14.245 22.4582C14.245 22.7013 14.3415 22.9344 14.5135 23.1064C14.6854 23.2783 14.9185 23.3748 15.1616 23.3748H20.6616C20.9047 23.3748 21.1379 23.2783 21.3098 23.1064C21.4817 22.9344 21.5783 22.7013 21.5783 22.4582C21.5783 22.2151 21.4817 21.9819 21.3098 21.81C21.1379 21.6381 20.9047 21.5415 20.6616 21.5415Z" fill="#47C88A"/>
<path d="M20.1667 28.875H14.6667C14.4236 28.875 14.1904 28.9716 14.0185 29.1435C13.8466 29.3154 13.75 29.5486 13.75 29.7917C13.75 30.0348 13.8466 30.2679 14.0185 30.4398C14.1904 30.6118 14.4236 30.7083 14.6667 30.7083H20.1667C20.4098 30.7083 20.6429 30.6118 20.8148 30.4398C20.9868 30.2679 21.0833 30.0348 21.0833 29.7917C21.0833 29.5486 20.9868 29.3154 20.8148 29.1435C20.6429 28.9716 20.4098 28.875 20.1667 28.875Z" fill="#47C88A"/>
<path d="M29.975 28.875H23.5583C23.3152 28.875 23.0821 28.9716 22.9101 29.1435C22.7382 29.3154 22.6417 29.5486 22.6417 29.7917C22.6417 30.0348 22.7382 30.2679 22.9101 30.4398C23.0821 30.6118 23.3152 30.7083 23.5583 30.7083H29.975C30.2181 30.7083 30.4513 30.6118 30.6232 30.4398C30.7951 30.2679 30.8917 30.0348 30.8917 29.7917C30.8917 29.5486 30.7951 29.3154 30.6232 29.1435C30.4513 28.9716 30.2181 28.875 29.975 28.875Z" fill="#47C88A"/>
<path d="M30.8917 25.208H24.475C24.2319 25.208 23.9987 25.3046 23.8268 25.4765C23.6549 25.6484 23.5583 25.8816 23.5583 26.1247C23.5583 26.3678 23.6549 26.6009 23.8268 26.7729C23.9987 26.9448 24.2319 27.0413 24.475 27.0413H30.8917C31.1348 27.0413 31.368 26.9448 31.5399 26.7729C31.7118 26.6009 31.8083 26.3678 31.8083 26.1247C31.8083 25.8816 31.7118 25.6484 31.5399 25.4765C31.368 25.3046 31.1348 25.208 30.8917 25.208Z" fill="#47C88A"/>
</g>
<defs>
<clipPath id="clip0_326_30">
<rect width="33" height="33" fill="white"/>
</clipPath>
</defs>
</svg>
