<svg width="31" height="30" viewBox="0 0 31 30" fill="none" xmlns="http://www.w3.org/2000/svg">
<path d="M0.661002 4.60969C1.80728e-07 5.36166 0 6.65334 0 9.23367V23.4755C0 25.3039 9.03641e-08 26.2181 0.477559 26.9064C0.953601 27.5947 1.78743 27.8842 3.4551 28.4618L5.41688 29.1426C6.47964 29.511 7.29679 29.7945 7.98357 29.9764C8.43232 30.0962 8.84317 29.7444 8.84317 29.2805V6.31222C8.83793 6.12811 8.77187 5.95091 8.6553 5.80829C8.53874 5.66567 8.37824 5.56566 8.19885 5.52387C7.6091 5.37379 6.89958 5.12818 5.92779 4.79162C3.57335 3.97446 2.39537 3.56664 1.5009 3.98053C1.18075 4.13043 0.894856 4.34459 0.661002 4.60969ZM16.1005 2.08394L13.7719 3.69854C12.9305 4.28222 12.3119 4.71127 11.7858 5.016C11.6624 5.08583 11.5592 5.18654 11.4864 5.30827C11.4135 5.42999 11.3736 5.56854 11.3704 5.71035V28.5225C11.3704 29.0834 11.9526 29.4352 12.4256 29.1319C12.9335 28.8075 13.5157 28.4042 14.2206 27.9161L16.5493 26.3015C17.3907 25.7178 18.0093 25.2887 18.5353 24.984C18.6588 24.9142 18.762 24.8135 18.8348 24.6917C18.9076 24.57 18.9476 24.4315 18.9507 24.2897V1.476C18.9507 0.91354 18.3686 0.56333 17.8956 0.865026C17.3877 1.19098 16.8055 1.59425 16.1005 2.08394ZM26.8646 1.53664L24.9043 0.857445C23.8415 0.489043 23.0244 0.20554 22.3376 0.0236131C21.8889 -0.0961556 21.478 0.25557 21.478 0.719484V23.6878C21.4832 23.8719 21.5493 24.0491 21.6659 24.1917C21.7824 24.3343 21.9429 24.4343 22.1223 24.4761C22.7121 24.6262 23.4216 24.8703 24.3934 25.2084C26.7478 26.0255 27.9258 26.4334 28.8203 26.0195C29.1404 25.8696 29.4263 25.6554 29.6602 25.3903C30.3212 24.6383 30.3212 23.3467 30.3212 20.7663V6.52447C30.3212 4.69611 30.3212 3.78041 29.8436 3.09363C29.3676 2.40534 28.5337 2.11577 26.8661 1.53816" fill="#F59494"/>
</svg>
