<svg width="18" height="18" viewBox="0 0 18 18" fill="none" xmlns="http://www.w3.org/2000/svg">
<g clip-path="url(#clip0_107_18)">
<path d="M9 18C13.6944 18 17.5 14.1944 17.5 9.5C17.5 4.80558 13.6944 1 9 1C4.30558 1 0.5 4.80558 0.5 9.5C0.5 14.1944 4.30558 18 9 18Z" fill="#F4900C"/>
<path d="M9 17C13.6944 17 17.5 13.1944 17.5 8.5C17.5 3.80558 13.6944 0 9 0C4.30558 0 0.5 3.80558 0.5 8.5C0.5 13.1944 4.30558 17 9 17Z" fill="#FFCC4D"/>
<path d="M9 16C12.866 16 16 12.866 16 9C16 5.13401 12.866 2 9 2C5.13401 2 2 5.13401 2 9C2 12.866 5.13401 16 9 16Z" fill="#FFE8B6"/>
<path d="M9 15.5C12.866 15.5 16 12.366 16 8.5C16 4.63401 12.866 1.5 9 1.5C5.13401 1.5 2 4.63401 2 8.5C2 12.366 5.13401 15.5 9 15.5Z" fill="#FFAC33"/>
<path d="M4.77148 5.42779C4.77148 5.15529 5.03898 5.04629 5.03898 5.04629L8.97798 3.19629L12.9545 5.04629C12.9545 5.04629 13.2285 5.10729 13.2285 5.42979V5.75029H4.77148V5.42779Z" fill="#FFE8B6"/>
<path d="M12.9644 6.41815C12.9644 6.12615 12.7119 5.88965 12.4009 5.88965H5.56442C5.25292 5.88965 5.03592 6.12615 5.03592 6.41815C5.03592 6.61665 5.13792 6.78765 5.30042 6.87815V7.21115H6.35742V6.94665H7.41442V7.21115H8.47142V6.94665H9.52842V7.21115H10.5854V6.94665H11.6424V7.21115H12.6999V6.86465C12.8584 6.77065 12.9644 6.60615 12.9644 6.41815ZM13.7569 12.0001C13.7569 12.1053 13.7151 12.2062 13.6408 12.2805C13.5664 12.3549 13.4656 12.3966 13.3604 12.3966H4.63942C4.53426 12.3966 4.43341 12.3549 4.35905 12.2805C4.28469 12.2062 4.24292 12.1053 4.24292 12.0001C4.24292 11.895 4.28469 11.7941 4.35905 11.7198C4.43341 11.6454 4.53426 11.6036 4.63942 11.6036H13.3609C13.5794 11.6036 13.7569 11.7811 13.7569 12.0001Z" fill="#F4900C"/>
<path d="M13.2286 6.09995C13.2285 6.17006 13.2006 6.23726 13.151 6.28683C13.1014 6.33641 13.0342 6.36432 12.9641 6.36445H5.03559C4.96826 6.36031 4.90503 6.33064 4.85881 6.28149C4.8126 6.23234 4.78687 6.16742 4.78687 6.09995C4.78687 6.03248 4.8126 5.96756 4.85881 5.91841C4.90503 5.86926 4.96826 5.83959 5.03559 5.83545L12.9641 5.83695C12.9987 5.83682 13.0331 5.84352 13.0651 5.85667C13.0972 5.86982 13.1263 5.88917 13.1509 5.9136C13.1755 5.93802 13.195 5.96706 13.2083 5.99903C13.2216 6.03101 13.2285 6.0653 13.2286 6.09995ZM6.09309 6.40695H11.9076V6.99995H6.09309V6.40695Z" fill="#F4900C"/>
<path d="M6.35706 10.4144C6.35706 10.7064 6.19906 10.9429 6.00456 10.9429H5.65206C5.45756 10.9429 5.29956 10.7064 5.29956 10.4144V6.40741C5.29956 6.11541 5.45756 5.87891 5.65206 5.87891H6.00456C6.19906 5.87891 6.35706 6.11541 6.35706 6.40741V10.4144ZM12.7001 10.4144C12.7001 10.7064 12.5426 10.9429 12.3476 10.9429H11.9951C11.8006 10.9429 11.6426 10.7064 11.6426 10.4144V6.40741C11.6426 6.11541 11.8001 5.87891 11.9951 5.87891H12.3476C12.5421 5.87891 12.7001 6.11541 12.7001 6.40741V10.4144ZM8.47156 10.4144C8.47156 10.7064 8.31356 10.9429 8.11906 10.9429H7.76656C7.57206 10.9429 7.41406 10.7064 7.41406 10.4144V6.40741C7.41406 6.11541 7.57206 5.87891 7.76656 5.87891H8.11906C8.31356 5.87891 8.47156 6.11541 8.47156 6.40741V10.4144ZM10.5856 10.4144C10.5856 10.7064 10.4276 10.9429 10.2331 10.9429H9.88106C9.68656 10.9429 9.52856 10.7064 9.52856 10.4144V6.40741C9.52856 6.11541 9.68656 5.87891 9.88106 5.87891H10.2331C10.4276 5.87891 10.5856 6.11541 10.5856 6.40741V10.4144Z" fill="#FFD983"/>
<path d="M12.9644 10.6784C12.9644 10.9704 12.7279 11.2069 12.4359 11.2069H5.56439C5.42422 11.2069 5.2898 11.1512 5.19068 11.0521C5.09157 10.953 5.03589 10.8186 5.03589 10.6784C5.03589 10.5382 5.09157 10.4038 5.19068 10.3047C5.2898 10.2056 5.42422 10.1499 5.56439 10.1499H12.4359C12.7274 10.1499 12.9644 10.3864 12.9644 10.6784Z" fill="#FFCC4D"/>
<path d="M13.4931 11.2072C13.4931 11.4992 13.2566 11.7357 12.9646 11.7357H5.03558C4.89541 11.7357 4.76099 11.68 4.66187 11.5809C4.56276 11.4818 4.50708 11.3474 4.50708 11.2072C4.50708 11.067 4.56276 10.9326 4.66187 10.8335C4.76099 10.7344 4.89541 10.6787 5.03558 10.6787H12.9641C13.2561 10.6787 13.4931 10.9152 13.4931 11.2072Z" fill="#FFD983"/>
<path d="M13.7569 11.6035C13.7569 11.7087 13.7151 11.8095 13.6408 11.8839C13.5664 11.9583 13.4656 12 13.3604 12H4.63942C4.58735 12 4.53579 11.9898 4.48769 11.9698C4.43958 11.9499 4.39587 11.9207 4.35905 11.8839C4.32223 11.8471 4.29303 11.8034 4.2731 11.7553C4.25318 11.7072 4.24292 11.6556 4.24292 11.6035C4.24292 11.5515 4.25318 11.4999 4.2731 11.4518C4.29303 11.4037 4.32223 11.36 4.35905 11.3232C4.39587 11.2863 4.43958 11.2571 4.48769 11.2372C4.53579 11.2173 4.58735 11.207 4.63942 11.207H13.3609C13.5794 11.207 13.7569 11.3845 13.7569 11.6035Z" fill="#FFD983"/>
<path d="M12.9644 6.14276C12.9644 5.85076 12.7119 5.61426 12.4009 5.61426H5.56439C5.25289 5.61426 5.03589 5.85076 5.03589 6.14276C5.03589 6.34126 5.13789 6.51226 5.30039 6.60276V6.93576H6.35739V6.67126H7.41439V6.93576H8.47139V6.67126H9.52839V6.93576H10.5854V6.67126H11.6424V6.93576H12.6999V6.58926C12.8584 6.49526 12.9644 6.33076 12.9644 6.14276Z" fill="#FFCC4D"/>
<path d="M4.77148 5.7315C4.77148 5.459 5.03898 5.35 5.03898 5.35L8.97798 3.5L12.9545 5.35C12.9545 5.35 13.2285 5.411 13.2285 5.7335V5.879H4.77148V5.7315Z" fill="#FFD983"/>
<path d="M8.99999 4.17139C8.99999 4.17139 6.27249 5.45689 6.00049 5.57289C5.72799 5.68839 5.81899 5.87839 6.00099 5.87839H11.986C12.267 5.87839 12.2005 5.66389 11.9775 5.54789C11.7545 5.43239 8.99999 4.17139 8.99999 4.17139Z" fill="#FFAC33"/>
<path d="M13.2286 5.87827C13.2285 5.94838 13.2006 6.01558 13.151 6.06515C13.1014 6.11473 13.0342 6.14264 12.9641 6.14277H5.03559C4.96826 6.13863 4.90503 6.10896 4.85881 6.05981C4.8126 6.01066 4.78687 5.94574 4.78687 5.87827C4.78687 5.8108 4.8126 5.74588 4.85881 5.69673C4.90503 5.64758 4.96826 5.61791 5.03559 5.61377L12.9641 5.61527C12.9987 5.61514 13.0331 5.62184 13.0651 5.63499C13.0972 5.64814 13.1263 5.66749 13.1509 5.69192C13.1755 5.71634 13.195 5.74538 13.2083 5.77735C13.2216 5.80933 13.2285 5.84362 13.2286 5.87827Z" fill="#FFD983"/>
</g>
<defs>
<clipPath id="clip0_107_18">
<rect width="18" height="18" fill="white"/>
</clipPath>
</defs>
</svg>
