<svg width="32" height="32" viewBox="0 0 32 32" fill="none" xmlns="http://www.w3.org/2000/svg">
<path d="M27.2196 10.3698L26.8618 11.1931C26.8059 11.3272 26.7115 11.4417 26.5907 11.5223C26.4698 11.6028 26.3278 11.6458 26.1825 11.6458C26.0372 11.6458 25.8952 11.6028 25.7744 11.5223C25.6535 11.4417 25.5591 11.3272 25.5032 11.1931L25.1454 10.3698C24.5162 8.9134 23.3641 7.74566 21.9162 7.09703L20.8122 6.60393C20.6782 6.54231 20.5648 6.44359 20.4852 6.31945C20.4057 6.19532 20.3634 6.05098 20.3634 5.90354C20.3634 5.75611 20.4057 5.61177 20.4852 5.48764C20.5648 5.3635 20.6782 5.26478 20.8122 5.20316L21.8551 4.73915C23.3394 4.07205 24.5113 2.86111 25.1294 1.35579L25.4974 0.467039C25.5514 0.329369 25.6457 0.211175 25.7679 0.127867C25.8901 0.0445585 26.0346 0 26.1825 0C26.3304 0 26.4749 0.0445585 26.5971 0.127867C26.7193 0.211175 26.8136 0.329369 26.8676 0.467039L27.2356 1.35434C27.8531 2.85994 29.0245 4.0714 30.5084 4.73915L31.5528 5.20462C31.6864 5.26641 31.7994 5.36512 31.8787 5.4891C31.9579 5.61307 32 5.75714 32 5.90427C32 6.05141 31.9579 6.19547 31.8787 6.31945C31.7994 6.44342 31.6864 6.54214 31.5528 6.60393L30.4473 7.09558C28.9998 7.74485 27.8481 8.91311 27.2196 10.3698ZM26.1825 14.5474C27.1698 14.5482 28.15 14.3815 29.0815 14.0543C29.0883 14.2192 29.0917 14.3835 29.0917 14.5474C29.0917 17.6336 27.8657 20.5935 25.6834 22.7758C23.5011 24.9581 20.5412 26.1841 17.455 26.1841V31.2751C10.1821 28.3659 0 24.0022 0 14.5474C0 11.4612 1.226 8.50134 3.4083 6.31904C5.5906 4.13674 8.55043 2.91074 11.6367 2.91074H17.455C17.6199 2.91074 17.7842 2.91413 17.9481 2.92092C17.4846 4.23721 17.3434 5.64546 17.5365 7.02756C17.7296 8.40966 18.2513 9.7253 19.0579 10.8641C19.8645 12.003 20.9324 12.9318 22.172 13.5727C23.4117 14.2135 24.787 14.5478 26.1825 14.5474Z" fill="#21A5F9"/>
</svg>
