<svg width="24" height="30" viewBox="0 0 24 30" fill="none" xmlns="http://www.w3.org/2000/svg">
<path fill-rule="evenodd" clip-rule="evenodd" d="M3.40654 0.168002C2.19153 0.327004 1.54952 0.619507 1.09051 1.06801C0.633008 1.51802 0.334504 2.14803 0.171002 3.33754C0.0029998 4.56305 0 6.18607 0 8.5126V21.3678C0.593973 20.9622 1.253 20.6613 1.94852 20.4782C2.74053 20.2697 3.66454 20.2697 5.01906 20.2712H24.0003V8.5141C24.0003 6.18607 23.9973 4.56305 23.8293 3.33754C23.6658 2.14803 23.3673 1.51802 22.9098 1.06801C22.4508 0.619507 21.8088 0.327004 20.5937 0.168002C19.3427 0.00300002 17.6867 0 15.3107 0H8.6896C6.31357 0 4.65755 0.00300002 3.40654 0.168002ZM4.13855 6.89258C4.13855 6.22057 4.69356 5.67607 5.37906 5.67607H18.6212C18.9467 5.67326 19.26 5.79956 19.4925 6.0273C19.725 6.25503 19.8578 6.56564 19.8617 6.89108C19.8582 7.21678 19.7256 7.52777 19.493 7.75583C19.2605 7.98389 18.9469 8.1104 18.6212 8.1076H5.37906C5.05361 8.1104 4.74031 7.9841 4.5078 7.75636C4.27528 7.52863 4.14251 7.21802 4.13855 6.89258ZM5.37906 11.3521C5.05361 11.3493 4.74031 11.4756 4.5078 11.7034C4.27528 11.9311 4.14251 12.2417 4.13855 12.5671C4.13855 13.2392 4.69356 13.7837 5.37906 13.7837H13.6547C13.9804 13.7869 14.2941 13.6607 14.5269 13.433C14.7597 13.2052 14.8927 12.8944 14.8967 12.5686C14.8931 12.2427 14.7603 11.9315 14.5274 11.7034C14.2945 11.4753 13.9806 11.3489 13.6547 11.3521H5.37906Z" fill="#EEBA72"/>
<path d="M5.20956 22.7026H24.0003C23.9958 24.3977 23.9688 25.6637 23.8308 26.6627C23.6673 27.8522 23.3688 28.4822 22.9113 28.9322C22.4523 29.3807 21.8103 29.6732 20.5952 29.8322C19.3442 29.9972 17.6882 30.0002 15.3122 30.0002H8.6896C6.31357 30.0002 4.65755 29.9972 3.40654 29.8337C2.19152 29.6732 1.54952 29.3807 1.09051 28.9322C0.633005 28.4822 0.334501 27.8522 0.170999 26.6627C0.109498 26.2127 0.0689985 25.7072 0.0449982 25.1327C0.250598 24.5708 0.589738 24.0673 1.03319 23.6657C1.47664 23.2641 2.01111 22.9763 2.59053 22.8271C3.02553 22.7131 3.59104 22.7026 5.20956 22.7026Z" fill="#EEBA72"/>
</svg>
