<svg width="23" height="23" viewBox="0 0 23 23" fill="none" xmlns="http://www.w3.org/2000/svg">
<path d="M22.0174 6.79675C21.9494 5.35662 21.6661 3.50826 20.1248 1.96607C18.5835 0.423879 16.7362 0.14039 15.2969 0.0723526C13.5856 -0.0183645 8.49703 -0.0297041 6.79706 0.0723526C5.35776 0.14039 3.51045 0.41254 1.96914 1.96607C0.42784 3.50826 0.144497 5.35662 0.0764985 6.79675C-0.0254995 8.50904 -0.0254995 13.6005 0.0764985 15.3015C0.144497 16.7416 0.416507 18.59 1.96914 20.1435C3.52178 21.6857 5.36909 21.9692 6.79706 22.0372C7.65838 22.0826 9.35832 22.1053 11.0583 22.1053C12.7583 22.1053 14.4469 22.0826 15.2969 22.0372C16.7362 21.9692 18.5835 21.697 20.1361 20.1435C21.6774 18.6013 21.9608 16.7529 22.0288 15.3128C22.1308 13.6005 22.1308 8.52037 22.0288 6.80808L22.0174 6.79675ZM20.3175 15.2108C20.2268 16.923 19.8188 18.0343 18.9122 18.9302C18.0168 19.826 16.9062 20.2456 15.1949 20.3249C13.5289 20.4156 8.55369 20.4156 6.86506 20.3249C5.16509 20.2342 4.05445 19.8147 3.1478 18.9188C2.25248 18.023 1.83314 16.9117 1.75381 15.1994C1.66315 13.5665 1.66315 8.50903 1.75381 6.86479C1.84448 5.1525 2.25248 4.04122 3.1478 3.14539C4.04311 2.24955 5.16509 1.82999 6.86506 1.75061C7.70371 1.70526 9.35832 1.68258 11.0243 1.68258C12.6903 1.68258 14.3563 1.70526 15.1949 1.75061C16.9062 1.84133 18.0168 2.24955 18.9122 3.15672C19.8075 4.05255 20.2268 5.16385 20.3061 6.87614C20.3968 8.5544 20.3968 13.5325 20.3061 15.2108H20.3175ZM11.0356 5.66279C8.06636 5.66279 5.65241 8.07813 5.65241 11.0491C5.65241 14.0201 8.06636 16.4354 11.0356 16.4354C14.0049 16.4354 16.4189 14.0201 16.4189 11.0491C16.4189 8.07813 14.0049 5.66279 11.0356 5.66279ZM11.0356 14.7345C9.00701 14.7345 7.35237 13.0789 7.35237 11.0491C7.35237 9.01932 9.00701 7.36373 11.0356 7.36373C13.0643 7.36373 14.7189 9.01932 14.7189 11.0491C14.7189 13.0789 13.0643 14.7345 11.0356 14.7345ZM18.4248 4.81231C18.4248 5.43599 17.9148 5.94628 17.2915 5.94628C16.6682 5.94628 16.1582 5.43599 16.1582 4.81231C16.1582 4.18863 16.6568 3.67835 17.2915 3.67835C17.9148 3.67835 18.4248 4.18863 18.4248 4.81231Z" fill="white"/>
</svg>
