<svg width="15" height="18" viewBox="0 0 15 18" fill="none" xmlns="http://www.w3.org/2000/svg">
<path fill-rule="evenodd" clip-rule="evenodd" d="M3.25 4.06167C3.25016 3.29302 3.46838 2.54019 3.87931 1.89061C4.29025 1.24103 4.87703 0.72136 5.57152 0.391957C6.26601 0.0625536 7.0397 -0.0630654 7.80273 0.0296899C8.56577 0.122445 9.28683 0.429768 9.88217 0.915965C10.4775 1.40216 10.9227 2.04728 11.166 2.7764C11.4094 3.50551 11.4409 4.2887 11.2569 5.035C11.0729 5.7813 10.6809 6.46009 10.1266 6.99252C9.57217 7.52496 8.87812 7.88919 8.125 8.04292V12.1867C8.125 12.4022 8.0394 12.6088 7.88702 12.7612C7.73465 12.9136 7.52799 12.9992 7.3125 12.9992C7.09701 12.9992 6.89035 12.9136 6.73798 12.7612C6.5856 12.6088 6.5 12.4022 6.5 12.1867V8.04292C5.58239 7.85562 4.75768 7.35703 4.16544 6.63153C3.5732 5.90604 3.24981 4.9982 3.25 4.06167ZM5.27231 11.4554C5.28848 11.561 5.28368 11.6686 5.2582 11.7723C5.23273 11.876 5.18707 11.9736 5.12383 12.0597C5.0606 12.1457 4.98103 12.2184 4.88968 12.2736C4.79833 12.3289 4.69698 12.3656 4.59144 12.3817C3.55306 12.5401 2.72837 12.779 2.18644 13.0439C1.91425 13.1771 1.75256 13.2982 1.66887 13.3867L1.65181 13.4054C1.67862 13.4371 1.72494 13.4834 1.80619 13.5427C2.03369 13.7109 2.41475 13.8962 2.95831 14.066C4.0365 14.4032 5.57619 14.6242 7.3125 14.6242C9.04881 14.6242 10.5885 14.4032 11.6667 14.066C12.2111 13.8962 12.5913 13.7109 12.8188 13.5427C12.9001 13.4834 12.9464 13.4371 12.9732 13.4054L12.9561 13.3867C12.8724 13.2982 12.7107 13.1771 12.4386 13.0439C11.8966 12.779 11.0719 12.5401 10.0336 12.3817C9.92686 12.367 9.82412 12.3313 9.73134 12.2766C9.63856 12.2219 9.55758 12.1493 9.49311 12.063C9.42864 11.9767 9.38198 11.8785 9.35582 11.774C9.32966 11.6695 9.32454 11.5609 9.34075 11.4544C9.35697 11.3479 9.39419 11.2457 9.45025 11.1538C9.50632 11.0618 9.58011 10.9819 9.66733 10.9187C9.75456 10.8555 9.85348 10.8103 9.95833 10.7857C10.0632 10.7611 10.1719 10.7576 10.2781 10.7754C11.4059 10.946 12.4085 11.2198 13.1536 11.5846C13.5249 11.7666 13.8718 11.9909 14.1351 12.2687C14.4032 12.5507 14.625 12.935 14.625 13.4054C14.625 14.0644 14.1992 14.5429 13.7849 14.8492C13.3542 15.1677 12.7831 15.4196 12.1517 15.617C10.8761 16.0152 9.16663 16.2492 7.3125 16.2492C5.45837 16.2492 3.74806 16.0152 2.47406 15.617C1.84194 15.4196 1.27156 15.1677 0.840937 14.8492C0.42575 14.5429 0 14.0644 0 13.4054C0 12.9342 0.221812 12.5507 0.489937 12.2679C0.754 11.99 1.10012 11.7666 1.47144 11.5854C2.2165 11.2198 3.21994 10.9468 4.34606 10.7754C4.45159 10.7592 4.55928 10.764 4.66295 10.7895C4.76663 10.8149 4.86427 10.8606 4.95029 10.9238C5.03631 10.9871 5.10903 11.0666 5.16428 11.158C5.21954 11.2493 5.25625 11.3499 5.27231 11.4554Z" fill="white"/>
</svg>
