<svg width="23" height="23" viewBox="0 0 23 23" fill="none" xmlns="http://www.w3.org/2000/svg">
<path fill-rule="evenodd" clip-rule="evenodd" d="M12.5968 0C6.85624 0 2.19338 4.66286 2.19338 10.4034C2.19338 12.1533 2.64154 13.8712 3.47381 15.4077L1.83057 21.1696L7.59247 19.5264C9.12898 20.3693 10.8469 20.8068 12.5968 20.8068C18.3373 20.8068 23.0002 16.1439 23.0002 10.4034C23.0002 4.66286 18.3373 0 12.5968 0ZM12.5968 19.2063C11.0176 19.2063 9.4704 18.7795 8.10462 17.9792L7.80589 17.7978L4.15672 18.8435L5.20237 15.1943L5.03161 14.8955C4.22068 13.5404 3.7939 11.9826 3.7939 10.4034C3.7939 5.54848 7.74186 1.60052 12.5968 1.60052C17.4517 1.60052 21.3997 5.54848 21.3997 10.4034C21.3997 15.2583 17.4517 19.2063 12.5968 19.2063ZM17.8998 12.8148C17.9638 12.9215 17.9639 13.4551 17.7505 14.0739C17.5264 14.7035 16.4594 15.2797 15.9792 15.333C15.499 15.3864 15.0509 15.5571 12.8315 14.6821C10.164 13.6151 8.46744 10.8622 8.3394 10.6915C8.21136 10.5208 7.27238 9.2617 7.27238 7.95994C7.27238 6.65818 7.94459 6.02864 8.19 5.75121C8.43541 5.48446 8.72355 5.42044 8.89427 5.42044C9.07566 5.42044 9.24636 5.42043 9.40641 5.4311C9.58781 5.4311 9.8012 5.4311 9.99326 5.87925C10.228 6.40209 10.7295 7.70385 10.7935 7.82122C10.8575 7.94927 10.9002 8.10931 10.8149 8.28003C10.7189 8.45076 10.6762 8.56813 10.5481 8.71751C10.4201 8.86689 10.2707 9.05897 10.1533 9.17634C10.0146 9.30438 9.88653 9.44309 10.0359 9.70985C10.196 9.96593 10.7188 10.8409 11.4977 11.5344C12.5007 12.4414 13.3437 12.7188 13.6105 12.8469C13.8665 12.9749 14.0266 12.9536 14.1759 12.7828C14.336 12.6121 14.8375 12.0146 15.0082 11.7478C15.179 11.4917 15.3497 11.5344 15.5951 11.6198C15.8405 11.7052 17.1209 12.356 17.3877 12.4841C17.6438 12.6228 17.8252 12.6868 17.8892 12.7935L17.8998 12.8148Z" fill="white"/>
</svg>
