<svg width="11" height="11" viewBox="0 0 11 11" fill="none" xmlns="http://www.w3.org/2000/svg">
<g clip-path="url(#clip0_211_1053)">
<path d="M5.11751 10.2348C7.78682 10.2348 9.95072 8.07088 9.95072 5.40157C9.95072 2.73226 7.78682 0.568359 5.11751 0.568359C2.4482 0.568359 0.284302 2.73226 0.284302 5.40157C0.284302 8.07088 2.4482 10.2348 5.11751 10.2348Z" fill="#F4900C"/>
<path d="M5.11751 9.66642C7.78682 9.66642 9.95072 7.50252 9.95072 4.83321C9.95072 2.1639 7.78682 0 5.11751 0C2.4482 0 0.284302 2.1639 0.284302 4.83321C0.284302 7.50252 2.4482 9.66642 5.11751 9.66642Z" fill="#FFCC4D"/>
<path d="M5.11751 9.09779C7.31577 9.09779 9.09781 7.31575 9.09781 5.1175C9.09781 2.91924 7.31577 1.13721 5.11751 1.13721C2.91926 1.13721 1.13722 2.91924 1.13722 5.1175C1.13722 7.31575 2.91926 9.09779 5.11751 9.09779Z" fill="#FFE8B6"/>
<path d="M5.11751 8.81312C7.31577 8.81312 9.09781 7.03109 9.09781 4.83283C9.09781 2.63458 7.31577 0.852539 5.11751 0.852539C2.91926 0.852539 1.13722 2.63458 1.13722 4.83283C1.13722 7.03109 2.91926 8.81312 5.11751 8.81312Z" fill="#FFAC33"/>
<path d="M2.71313 3.08624C2.71313 2.9313 2.86524 2.86932 2.86524 2.86932L5.10501 1.81738L7.3661 2.86932C7.3661 2.86932 7.5219 2.904 7.5219 3.08738V3.26962H2.71313V3.08624Z" fill="#FFE8B6"/>
<path d="M7.37178 3.64914C7.37178 3.48311 7.22821 3.34863 7.05137 3.34863H3.16404C2.98692 3.34863 2.86353 3.48311 2.86353 3.64914C2.86353 3.76201 2.92153 3.85925 3.01393 3.91071V4.10006H3.61495V3.94966H4.21598V4.10006H4.817V3.94966H5.41803V4.10006H6.01905V3.94966H6.62007V4.10006H7.22138V3.90303C7.31151 3.84958 7.37178 3.75604 7.37178 3.64914ZM7.82241 6.82314C7.82241 6.88294 7.79865 6.94028 7.75637 6.98256C7.71409 7.02485 7.65674 7.0486 7.59695 7.0486H2.63808C2.57828 7.0486 2.52094 7.02485 2.47865 6.98256C2.43637 6.94028 2.41262 6.88294 2.41262 6.82314C2.41262 6.76335 2.43637 6.706 2.47865 6.66372C2.52094 6.62144 2.57828 6.59769 2.63808 6.59769H7.59723C7.72148 6.59769 7.82241 6.69862 7.82241 6.82314Z" fill="#F4900C"/>
<path d="M7.5219 3.46778C7.52183 3.50765 7.50596 3.54586 7.47777 3.57405C7.44958 3.60223 7.41137 3.6181 7.3715 3.61818H2.86326C2.82497 3.61582 2.78902 3.59895 2.76274 3.57101C2.73646 3.54306 2.72182 3.50614 2.72182 3.46778C2.72182 3.42942 2.73646 3.3925 2.76274 3.36456C2.78902 3.33661 2.82497 3.31974 2.86326 3.31738L7.3715 3.31824C7.3912 3.31816 7.41073 3.32197 7.42895 3.32945C7.44718 3.33693 7.46375 3.34793 7.47772 3.36182C7.49169 3.37571 7.50278 3.39222 7.51036 3.4104C7.51794 3.42858 7.52186 3.44808 7.5219 3.46778ZM3.46456 3.64235H6.77076V3.97953H3.46456V3.64235Z" fill="#F4900C"/>
<path d="M3.61467 5.92172C3.61467 6.08775 3.52483 6.22223 3.41423 6.22223H3.2138C3.1032 6.22223 3.01336 6.08775 3.01336 5.92172V3.64329C3.01336 3.47725 3.1032 3.34277 3.2138 3.34277H3.41423C3.52483 3.34277 3.61467 3.47725 3.61467 3.64329V5.92172ZM7.22138 5.92172C7.22138 6.08775 7.13182 6.22223 7.02094 6.22223H6.82051C6.70991 6.22223 6.62007 6.08775 6.62007 5.92172V3.64329C6.62007 3.47725 6.70963 3.34277 6.82051 3.34277H7.02094C7.13154 3.34277 7.22138 3.47725 7.22138 3.64329V5.92172ZM4.817 5.92172C4.817 6.08775 4.72716 6.22223 4.61656 6.22223H4.41613C4.30553 6.22223 4.21569 6.08775 4.21569 5.92172V3.64329C4.21569 3.47725 4.30553 3.34277 4.41613 3.34277H4.61656C4.72716 3.34277 4.817 3.47725 4.817 3.64329V5.92172ZM6.01905 5.92172C6.01905 6.08775 5.92921 6.22223 5.81861 6.22223H5.61846C5.50786 6.22223 5.41802 6.08775 5.41802 5.92172V3.64329C5.41802 3.47725 5.50786 3.34277 5.61846 3.34277H5.81861C5.92921 3.34277 6.01905 3.47725 6.01905 3.64329V5.92172Z" fill="#FFD983"/>
<path d="M7.37178 6.07151C7.37178 6.23754 7.23731 6.37202 7.07127 6.37202H3.16405C3.08434 6.37202 3.00791 6.34036 2.95155 6.284C2.89519 6.22765 2.86353 6.15121 2.86353 6.07151C2.86353 5.99181 2.89519 5.91537 2.95155 5.85901C3.00791 5.80266 3.08434 5.771 3.16405 5.771H7.07127C7.23702 5.771 7.37178 5.90547 7.37178 6.07151Z" fill="#FFCC4D"/>
<path d="M7.67229 6.37229C7.67229 6.53832 7.53782 6.6728 7.37178 6.6728H2.86325C2.78355 6.6728 2.70711 6.64114 2.65075 6.58478C2.5944 6.52843 2.56274 6.45199 2.56274 6.37229C2.56274 6.29259 2.5944 6.21615 2.65075 6.1598C2.70711 6.10344 2.78355 6.07178 2.86325 6.07178H7.3715C7.53753 6.07178 7.67229 6.20625 7.67229 6.37229Z" fill="#FFD983"/>
<path d="M7.82241 6.59753C7.82241 6.65732 7.79865 6.71467 7.75637 6.75695C7.71409 6.79923 7.65674 6.82298 7.59695 6.82298H2.63808C2.60847 6.82298 2.57915 6.81715 2.5518 6.80582C2.52444 6.79449 2.49959 6.77788 2.47865 6.75695C2.45772 6.73601 2.44111 6.71116 2.42978 6.6838C2.41845 6.65645 2.41262 6.62713 2.41262 6.59753C2.41262 6.56792 2.41845 6.5386 2.42978 6.51125C2.44111 6.48389 2.45772 6.45904 2.47865 6.4381C2.49959 6.41717 2.52444 6.40056 2.5518 6.38923C2.57915 6.3779 2.60847 6.37207 2.63808 6.37207H7.59723C7.72148 6.37207 7.82241 6.473 7.82241 6.59753Z" fill="#FFD983"/>
<path d="M7.37178 3.49241C7.37178 3.32637 7.22821 3.19189 7.05137 3.19189H3.16405C2.98692 3.19189 2.86353 3.32637 2.86353 3.49241C2.86353 3.60528 2.92153 3.70251 3.01393 3.75397V3.94332H3.61496V3.79292H4.21598V3.94332H4.817V3.79292H5.41803V3.94332H6.01905V3.79292H6.62008V3.94332H7.22138V3.74629C7.31151 3.69284 7.37178 3.59931 7.37178 3.49241Z" fill="#FFCC4D"/>
<path d="M2.71313 3.25861C2.71313 3.10366 2.86524 3.04168 2.86524 3.04168L5.10501 1.98975L7.3661 3.04168C7.3661 3.04168 7.5219 3.07637 7.5219 3.25974V3.34248H2.71313V3.25861Z" fill="#FFD983"/>
<path d="M5.11752 2.37158C5.11752 2.37158 3.56663 3.10253 3.41197 3.16849C3.25702 3.23417 3.30876 3.3422 3.41225 3.3422H6.8154C6.97518 3.3422 6.93737 3.22024 6.81057 3.15428C6.68377 3.0886 5.11752 2.37158 5.11752 2.37158Z" fill="#FFAC33"/>
<path d="M7.5219 3.34229C7.52183 3.38216 7.50596 3.42037 7.47777 3.44856C7.44958 3.47675 7.41137 3.49262 7.3715 3.49269H2.86326C2.82497 3.49034 2.78902 3.47346 2.76274 3.44552C2.73646 3.41757 2.72182 3.38065 2.72182 3.34229C2.72182 3.30393 2.73646 3.26701 2.76274 3.23907C2.78902 3.21112 2.82497 3.19425 2.86326 3.19189L7.3715 3.19275C7.3912 3.19267 7.41073 3.19648 7.42895 3.20396C7.44718 3.21144 7.46375 3.22244 7.47772 3.23633C7.49169 3.25022 7.50278 3.26673 7.51036 3.28491C7.51794 3.30309 7.52186 3.32259 7.5219 3.34229Z" fill="#FFD983"/>
</g>
<defs>
<clipPath id="clip0_211_1053">
<rect width="10.235" height="10.235" fill="white"/>
</clipPath>
</defs>
</svg>
