<svg width="1141" height="425" viewBox="0 0 1141 425" fill="none" xmlns="http://www.w3.org/2000/svg">
<path d="M985.191 261.311C983.378 261.311 987.458 253.017 989.725 248.871C981.791 245.477 982.924 236.432 985.191 234.17C987.005 232.361 998.038 236.432 1003.33 238.694C1005.22 234.17 1009.22 224.671 1010.13 222.861C1011.04 221.052 1015.8 220.599 1018.06 220.599C1019.57 217.206 1022.82 209.969 1023.73 208.159C1024.64 206.349 1033.93 207.405 1038.47 208.159C1042.09 185.541 1058.87 186.672 1066.8 190.065C1068.69 194.965 1076.78 205.219 1094.01 207.028C1115.55 209.29 1114.41 213.813 1131.42 220.599C1148.42 227.384 1137.08 268.096 1135.95 269.227C1134.82 270.358 1133.68 303.153 1135.95 304.284C1138.22 305.415 1139.35 324.64 1137.08 324.64C1135.27 324.64 1134.82 328.41 1134.82 330.294C1141.62 330.294 1140.48 350.65 1138.22 350.65C1135.95 350.65 1134.82 356.305 1135.95 357.435C1137.08 358.566 1139.35 387.969 1134.82 390.231C1130.28 392.493 1111.01 369.875 1108.75 367.613C1106.93 365.804 1086.07 366.86 1075.87 367.613C1071.34 372.137 1060.68 379.601 1054.34 373.268C1046.4 365.352 1060 356.305 1061.14 356.305C1062.04 356.305 1067.56 348.012 1070.21 343.865C1079.27 346.579 1080.03 342.734 1079.27 340.472L1074.74 335.949C1072.93 334.139 1074.74 329.917 1075.87 328.033C1070.21 326.902 1069.07 309.938 1067.94 309.938C1067.03 309.938 1066.8 303.153 1066.8 299.76C1060.46 299.76 1049.8 287.698 1045.27 281.666C1042.62 280.912 1035.97 279.857 1030.53 281.666C1025.09 283.476 1015.42 273.373 1011.26 268.096C984.057 271.488 987.458 261.311 985.191 261.311Z" fill="#F7E4E1"/>
<path d="M1015.8 193.458C1007.63 189.839 1001.06 191.95 998.793 193.458C998.793 196.173 1004.84 197.605 1007.86 197.982C1031.67 209.291 1030.53 195.72 1028.26 197.982C1026 200.244 1026 197.982 1015.8 193.458Z" fill="#F7E4E1"/>
<path d="M1018.06 182.149C1003.55 179.435 999.171 171.218 998.793 167.448C998.793 162.924 1004.84 164.809 1007.86 166.317C1019.65 177.174 1019.57 181.396 1018.06 182.149Z" fill="#F7E4E1"/>
<path d="M985.191 173.103C983.378 172.198 979.901 174.233 978.389 175.364L979.523 178.757C982.546 179.134 988.818 179.662 989.725 178.757C990.86 177.626 987.458 174.233 985.191 173.103Z" fill="#F7E4E1"/>
<path d="M896.776 183.281C892.242 184.185 888.841 187.427 887.707 188.935C883.173 191.649 898.665 191.574 906.977 191.197C907.355 193.459 908.111 198.661 908.111 201.375C908.111 204.089 914.912 203.26 918.313 202.506C922.847 216.077 945.895 213.438 956.852 210.422V216.077C955.341 214.946 951.865 213.363 950.051 216.077C948.238 218.791 944.762 220.223 943.25 220.6C941.739 216.831 937.356 210.875 931.915 217.208C926.474 223.54 922.091 222.862 920.58 221.731C910.378 217.208 911.511 222.862 910.378 227.385C909.471 231.004 923.602 239.448 930.781 243.218C930.781 248.872 930.781 256.788 938.716 259.05C946.651 261.312 945.517 250.003 945.517 244.349C945.517 239.825 950.051 240.956 952.318 242.087C953.225 247.515 957.986 251.888 960.253 253.396C962.974 258.824 975.745 257.165 981.79 255.658C985.417 252.943 981.79 249.249 979.523 247.741C973.855 240.956 979.523 234.17 979.523 231.909C979.523 229.648 979.523 219.469 977.256 218.338C974.989 217.208 974.989 221.731 970.455 223.993C966.827 225.802 964.409 219.469 963.654 216.077C964.787 205.145 966.827 181.245 965.921 173.103C965.014 164.96 948.918 166.695 940.983 168.58C938.338 165.564 931.688 159.306 926.247 158.401C920.806 157.496 915.668 165.563 913.779 169.71C913.401 168.956 910.605 167.9 902.443 169.71C894.282 171.52 895.264 179.511 896.776 183.281Z" fill="#F7E4E1"/>
<path d="M810.628 228.516C806.094 235.754 813.273 235.302 817.429 234.171C815.162 240.956 820.829 244.349 824.23 245.48C827.63 246.61 833.298 244.349 834.431 240.956C835.338 238.242 837.832 238.317 838.965 238.694C840.099 240.956 842.819 245.706 844.633 246.61C846.447 247.515 849.167 243.218 850.301 240.956C856.648 235.528 861.258 238.694 862.769 240.956C874.105 255.658 882.039 252.265 885.44 250.003C888.16 248.194 882.795 243.218 879.772 240.956C879.394 238.317 878.412 232.361 877.505 229.647C876.598 226.933 868.059 227.008 863.903 227.385C860.502 225.124 855.968 222.862 852.568 222.862C849.847 222.862 847.656 225.124 846.9 226.255C836.699 223.993 815.162 221.279 810.628 228.516Z" fill="#F7E4E1"/>
<path d="M774.355 228.516C772.541 227.612 768.309 232.663 766.42 235.302C766.042 234.925 765.286 235.98 765.286 243.218C765.286 252.265 781.156 252.265 785.69 251.134C790.224 250.003 794.758 243.218 794.758 237.563C794.758 233.04 788.713 233.417 785.69 234.171C785.69 231.909 776.622 229.647 774.355 228.516Z" fill="#F7E4E1"/>
<path d="M717.678 124.475C714.958 128.094 706.721 127.491 702.943 126.737C701.808 119.953 688.207 121.081 685.94 121.081C683.673 121.081 684.807 124.474 683.673 124.475C682.767 124.476 681.784 122.967 681.406 122.212C678.006 120.327 670.751 117.462 668.938 121.081C667.124 124.7 664.404 124.852 663.27 124.475C663.27 119.953 653.446 118.82 648.534 118.82C648.156 117.312 645.587 114.296 638.332 114.296C631.078 114.296 630.02 122.59 630.398 126.737C612.261 124.024 605.46 154.255 604.327 169.709C596.165 172.423 594.881 190.442 595.259 199.112C590.724 202.731 588.835 214.191 588.457 219.468C575.762 227.61 580.9 234.923 585.057 237.562C585.963 252.037 595.258 250.379 599.792 247.74C601.606 264.025 599.037 269.604 597.525 270.358C597.147 278.651 596.392 296.142 596.392 299.761C596.392 304.284 600.926 304.284 615.662 303.153C630.397 302.022 623.596 257.918 621.329 246.609C619.062 235.3 628.13 222.861 633.798 223.992C639.466 225.122 632.665 236.431 632.665 240.955C632.665 244.574 644.755 256.033 650.801 261.311C650.423 263.572 649.894 269.453 650.801 274.881C651.934 281.667 662.136 272.619 662.136 278.274C662.136 282.797 667.426 283.928 670.071 283.928C669.693 285.813 669.844 290.035 673.471 291.845C677.099 293.654 681.028 284.305 682.54 279.405C683.295 281.29 684.58 285.059 683.673 285.059C682.54 285.059 680.273 292.975 680.273 295.237C680.273 297.499 689.341 295.237 691.608 295.237C693.875 295.237 692.741 274.881 691.608 270.358C690.701 266.739 686.696 268.85 684.807 270.358C685.94 272.243 686.62 275.786 680.273 274.881C673.925 273.977 674.605 269.981 675.739 268.096H687.074C690.701 268.096 690.096 261.311 689.341 257.918C683.673 254.902 673.245 246.609 676.872 237.562C681.406 226.253 663.27 217.206 661.003 207.028C659.189 198.886 676.872 186.295 685.94 181.018H696.142C700.676 181.018 706.344 170.84 701.81 166.317C698.182 162.698 686.696 165.563 681.406 167.447C674.227 167.07 659.416 166.317 657.602 166.317C655.335 166.317 648.534 177.625 637.199 182.149C628.13 185.768 623.596 168.578 622.462 159.531C618.835 145.056 628.508 141.437 633.797 141.437C633.797 143.699 650.8 144.83 650.8 141.437C650.8 138.723 660.624 138.798 665.536 139.175C672.337 145.961 707.477 144.83 709.744 144.83C712.011 144.83 758.485 113.165 749.417 105.249C742.162 98.9162 732.792 110.15 729.014 116.559C726.293 113.845 723.346 115.428 722.212 116.559C721.835 117.69 720.399 120.856 717.678 124.475Z" fill="#F7E4E1"/>
<path d="M349.284 97.3328C353.44 96.9558 362.433 98.0113 365.153 105.249L365.153 105.249C368.554 114.296 371.954 123.343 378.755 122.212C385.557 121.081 407.094 125.605 411.628 121.081C416.162 116.558 429.764 102.987 434.298 104.118C437.925 105.023 445.633 112.034 449.034 115.427C451.679 115.427 457.422 114.749 459.236 112.034C461.503 108.642 463.77 108.642 468.304 107.511C471.931 106.606 478.128 107.134 480.773 107.511C482.662 101.856 487.347 90.3215 490.974 89.4168C490.219 84.8932 489.387 75.1676 492.108 72.4535C494.828 69.7394 500.798 65.2913 503.443 63.4065C505.332 55.1133 510.018 38.0747 513.645 36.2653C518.179 34.0035 546.517 31.7418 549.918 35.1344C553.318 38.527 560.119 52.097 552.185 54.3588C551.051 55.1127 548.784 56.3944 548.784 55.4897C548.784 54.3588 543.116 64.5368 554.452 66.7985C563.52 68.6079 568.054 94.6936 569.187 107.51C577.5 113.165 592.311 125.378 585.057 128.997C577.802 132.616 572.966 127.489 571.455 124.474C564.276 130.882 550.824 146.639 554.452 158.4C558.986 173.101 554.452 174.232 552.185 174.232C550.371 174.232 546.895 173.478 545.383 173.101C543.116 181.018 536.315 196.624 527.247 195.719C526.491 198.358 526.114 204.54 530.648 208.159C535.182 211.778 528.758 219.468 524.98 222.86C526.114 233.792 526.794 255.204 520.446 253.394C514.098 251.585 507.977 246.609 505.71 244.347C500.043 252.263 487.347 266.286 481.906 259.048C476.465 251.811 475.861 245.478 476.238 243.216C470.193 243.593 457.649 243.668 455.835 240.954C454.021 238.24 447.523 233.038 444.5 230.776C442.233 233.415 436.792 238.693 433.165 238.693C428.631 238.693 413.895 252.263 410.494 240.954C408.238 233.453 407.905 231.134 408.072 230.776C396.687 230.77 374.221 230.086 374.221 227.384C374.221 223.991 371.954 205.897 365.153 205.897C365.909 199.112 366.513 185.541 362.886 185.541C359.259 185.541 353.062 182.525 350.417 181.018C349.662 178.002 348.83 171.518 351.551 169.709C347.017 167.824 338.402 163.15 340.216 159.531C342.029 155.912 344.75 151.992 345.883 150.484C347.017 148.222 348.603 143.699 345.883 143.699C342.482 143.699 336.815 150.484 337.948 140.306C339.082 130.128 339.082 99.5949 349.284 97.3328Z" fill="#F7E4E1"/>
<path d="M38.6977 6.86175C26.0022 0.528804 9.22609 -0.300509 2.42494 0.0764521C-7.55007 13.6464 15.6494 33.6262 28.496 41.92C26.229 49.8361 35.2971 55.4905 37.5642 54.3597C39.3778 53.455 47.3881 56.9984 51.1665 58.8832V73.5847C51.1665 75.3941 57.9676 76.6003 61.3682 76.9773C62.1239 81.8778 63.862 91.905 64.7688 92.8097C65.9023 93.9405 74.9705 92.8097 76.104 91.6788C77.0108 90.7741 85.5501 98.0871 89.7063 101.857C86.9859 112.713 91.5955 128.998 94.2404 135.783C103.686 144.83 122.579 164.055 122.579 168.579C122.579 173.102 136.936 194.589 144.115 204.767C142.226 208.914 139.581 217.433 144.115 218.338C148.65 219.242 158.851 231.531 163.385 237.563C161.118 252.264 189.456 265.835 188.323 271.489C187.416 276.013 199.28 278.651 205.326 279.405C206.459 282.798 227.996 306.546 234.797 306.546C241.599 306.546 238.198 304.285 238.198 302.023C238.198 300.213 247.266 300.515 251.8 300.892C252.556 302.4 255.654 305.416 262.002 305.416C268.35 305.416 267.67 276.013 266.536 261.311C270.163 258.597 265.025 251.887 262.002 248.871C265.629 247.062 268.047 242.086 268.803 239.824C268.803 223.992 257.468 213.814 255.201 213.814C252.934 213.814 246.133 210.421 240.465 213.814C235.931 216.528 234.797 214.191 234.797 212.683C243.866 205.446 235.553 199.867 230.263 197.982C231.775 196.474 234.117 191.649 231.397 184.411C228.676 177.173 220.439 175.364 216.661 175.364C203.059 173.555 202.681 167.071 204.192 164.055C209.86 164.055 217.795 141.438 212.127 135.783C207.593 131.26 196.635 136.16 191.724 139.176C193.235 136.914 195.804 132.391 193.991 132.391C192.177 132.391 187.945 128.621 186.056 126.736C189.079 127.49 195.351 127.641 196.258 122.213C197.391 115.427 184.922 117.689 186.056 116.558C186.963 115.653 184.167 110.15 182.655 107.511C180.766 106.38 175.401 104.571 169.053 106.38C162.705 108.19 154.317 102.611 150.917 99.595C150.917 96.2023 148.65 87.1553 142.982 90.5479C138.448 93.262 135.803 90.9249 135.047 89.417C120.538 63.1805 90.462 46.8204 77.2375 41.92C80.8648 41.0152 78.7489 34.0038 77.2375 30.6111C72.7035 23.8258 62.7284 9.80289 59.1012 7.99348C55.4739 6.18407 43.9875 6.48507 38.6977 6.86175Z" fill="#F7E4E1"/>
<path d="M21.6953 73.5847C17.1612 70.8705 13.0049 70.9459 11.4935 71.3229C9.22649 79.2391 28.496 87.1553 30.7635 84.8935C33.0309 82.6317 27.3629 76.9773 21.6953 73.5847Z" fill="#F7E4E1"/>
<path d="M54.5675 109.773C52.7538 108.868 50.789 110.904 50.0334 112.035C48.9002 119.951 65.9027 133.521 69.3033 131.26C72.7038 128.998 56.8345 110.904 54.5675 109.773Z" fill="#F7E4E1"/>
<path d="M94.2404 176.495C90.6128 169.257 86.6837 171.217 85.1726 173.102C82.9056 176.495 85.1726 179.888 85.1726 183.28C85.1726 186.673 97.6414 197.982 102.175 196.851C106.71 195.72 103.309 191.196 99.9084 190.066C96.5079 188.935 98.7749 185.542 94.2404 176.495Z" fill="#F7E4E1"/>
<path d="M260.869 329.164C260.869 331.878 271.448 334.818 276.738 335.949C277.494 336.703 279.005 339.794 279.005 346.127C279.005 352.46 302.431 352.536 314.145 351.782C316.865 357.21 347.772 355.551 362.886 354.043C372.861 368.519 401.804 369.876 415.028 368.745C419.562 377.792 441.099 375.53 442.233 373.268C443.14 371.459 450.923 373.268 454.702 374.399C455.835 376.661 460.142 380.958 468.304 380.054C478.506 378.923 476.238 357.436 477.372 355.174C478.505 352.913 470.571 349.52 469.437 352.913C468.304 356.305 461.503 356.305 458.102 355.174C454.702 354.043 444.5 351.782 438.832 350.651C434.298 349.746 435.432 343.489 436.565 340.473C464.677 343.187 467.926 339.342 466.037 337.08C459.689 325.319 447.523 326.148 442.233 328.033C440.419 331.652 430.897 331.049 426.363 330.295C424.55 326.676 415.028 325.771 410.494 325.771C408.68 322.153 399.159 323.51 394.625 324.641C393.491 322.756 390.544 318.986 387.824 318.986C384.423 318.986 379.889 323.51 375.355 325.771C371.728 327.581 345.883 324.264 333.414 322.379C333.414 320.494 332.734 316.046 330.014 313.332C326.613 309.939 315.278 307.677 307.343 311.07C300.996 313.784 290.34 309.939 285.806 307.677C251.801 308.808 260.869 325.771 260.869 329.164Z" fill="#F7E4E1"/>
<path d="M495.508 364.221C491.881 364.221 483.417 365.729 479.639 366.483C478.506 366.705 480.773 373.268 484.173 372.138C486.894 371.233 492.864 377.792 495.508 381.185C498.909 380.054 506.617 376.887 510.244 373.268C514.778 368.745 500.043 364.221 495.508 364.221Z" fill="#F7E4E1"/>
<path d="M514.778 380.054C517.045 376.661 521.353 369.197 520.446 366.483C519.312 363.091 536.315 365.352 535.182 371.007C534.972 372.05 534.377 373.21 533.524 374.399C540.5 371.384 554.452 366.483 554.452 371.007C554.452 376.661 560.119 376.507 563.52 376.661C566.92 376.815 568.054 386.839 561.253 387.97C554.452 389.101 552.185 390.232 541.983 392.493C533.821 394.303 531.781 382.59 531.781 376.507C527.522 381.088 520.583 385.377 518.179 384.577C515.458 383.673 514.778 381.185 514.778 380.054Z" fill="#F7E4E1"/>
<path d="M572.588 365.352C570.774 362.638 564.276 361.96 561.253 361.96C556.719 363.091 560.119 365.352 560.119 368.745C560.119 371.459 570.699 374.399 575.989 375.53C575.611 376.661 575.308 379.375 577.122 381.185C579.389 383.446 586.19 384.577 589.591 376.661C592.311 370.328 584.679 368.745 580.523 368.745C579.389 363.091 574.855 368.745 572.588 365.352Z" fill="#F7E4E1"/>
<path d="M594.125 397.017C590.498 397.922 588.08 400.41 587.324 401.541C591.858 409.457 613.395 415.111 617.929 418.504C622.463 421.896 630.398 418.504 633.798 415.111C637.199 411.718 620.196 399.279 620.196 395.886C620.196 392.494 614.528 391.363 614.528 394.755C614.528 398.148 598.659 395.886 594.125 397.017Z" fill="#F7E4E1"/>
<path d="M619.062 368.745C612.715 368.745 610.372 377.792 609.994 382.316C610.901 385.03 617.929 384.2 621.33 383.446C624.73 390.232 645.134 382.316 648.534 383.446C651.255 384.351 665.537 382.316 672.338 381.185C677.628 378.169 687.754 371.685 685.94 369.876C683.673 367.614 678.006 373.268 674.605 375.53C671.205 377.792 666.671 373.268 664.404 374.399C662.59 375.304 640.222 374.022 629.264 373.268C628.509 371.761 625.41 368.745 619.062 368.745Z" fill="#F7E4E1"/>
<path d="M708.611 401.541C706.797 406.064 700.298 413.98 697.276 417.373C699.996 430.943 715.79 421.519 723.347 415.111C726.974 415.111 735.438 406.064 739.216 401.541C743.75 397.017 751.231 387.291 744.884 384.577C736.949 381.185 730.148 393.624 725.614 393.624C721.08 393.624 710.878 395.886 708.611 401.541Z" fill="#F7E4E1"/>
</svg>
