<svg width="16" height="16" viewBox="0 0 16 16" fill="none" xmlns="http://www.w3.org/2000/svg">
<path fill-rule="evenodd" clip-rule="evenodd" d="M11.0002 5C11.1464 5.00005 11.2895 5.04286 11.4117 5.12317C11.534 5.20348 11.6301 5.31778 11.6882 5.452L14.9382 12.952C14.9802 13.0428 15.0037 13.1411 15.0072 13.2411C15.0107 13.3411 14.9941 13.4408 14.9585 13.5343C14.9228 13.6278 14.8688 13.7133 14.7997 13.7856C14.7305 13.8579 14.6476 13.9157 14.5557 13.9554C14.4639 13.9952 14.365 14.0162 14.265 14.0172C14.1649 14.0182 14.0657 13.9991 13.9731 13.9611C13.8805 13.9232 13.7964 13.8671 13.7259 13.7961C13.6553 13.7252 13.5996 13.6408 13.5622 13.548L12.8902 12H9.10917L8.43917 13.548C8.36014 13.7306 8.2118 13.8743 8.0268 13.9476C7.8418 14.0208 7.63528 14.0175 7.45267 13.9385C7.27007 13.8595 7.12635 13.7111 7.05311 13.5261C6.97988 13.3411 6.98314 13.1346 7.06217 12.952L10.3122 5.452C10.3703 5.31778 10.4664 5.20348 10.5886 5.12317C10.7109 5.04286 10.8539 5.00005 11.0002 5ZM9.76017 10.5H12.2402L11.0002 7.636L9.76017 10.5ZM5.00017 1C5.19909 1 5.38985 1.07902 5.5305 1.21967C5.67116 1.36032 5.75017 1.55109 5.75017 1.75V3.011C6.61925 3.03611 7.48643 3.10654 8.34817 3.222C8.54536 3.24852 8.72394 3.35229 8.84462 3.51048C8.9653 3.66866 9.0182 3.86831 8.99167 4.0655C8.96515 4.26269 8.86138 4.44127 8.7032 4.56195C8.54501 4.68262 8.34536 4.73552 8.14817 4.709C7.92817 4.679 7.70751 4.65233 7.48617 4.629C7.13355 5.84202 6.606 6.99716 5.92017 8.058C6.15751 8.362 6.40817 8.653 6.67217 8.931C6.80942 9.07501 6.88384 9.26765 6.87906 9.46653C6.87428 9.66541 6.79069 9.85425 6.64667 9.9915C6.50266 10.1288 6.31003 10.2032 6.11114 10.1984C5.91226 10.1936 5.72342 10.11 5.58617 9.966C5.38344 9.75302 5.188 9.53323 5.00017 9.307C4.18353 10.2908 3.22622 11.1487 2.15917 11.853C1.99329 11.9575 1.79305 11.993 1.60137 11.9517C1.40969 11.9104 1.2418 11.7956 1.13367 11.6321C1.02554 11.4685 0.985764 11.2691 1.02287 11.0766C1.05997 10.884 1.171 10.7137 1.33217 10.602C2.37999 9.90813 3.30808 9.04859 4.08017 8.057C3.88248 7.75221 3.69765 7.43927 3.52617 7.119C3.43242 6.94356 3.4122 6.73806 3.46996 6.54771C3.52772 6.35736 3.65873 6.19775 3.83417 6.104C4.00962 6.01025 4.21511 5.99003 4.40546 6.04779C4.59581 6.10555 4.75542 6.23656 4.84917 6.412L4.99917 6.683C5.38717 6.003 5.70717 5.278 5.95117 4.519C4.58159 4.46514 3.20991 4.52871 1.85117 4.709C1.65399 4.73552 1.45434 4.68262 1.29615 4.56195C1.13796 4.44127 1.0342 4.26269 1.00767 4.0655C0.981153 3.86831 1.03405 3.66866 1.15473 3.51048C1.27541 3.35229 1.45399 3.24852 1.65117 3.222C2.50451 3.108 3.37051 3.03767 4.24917 3.011V1.75C4.24917 1.65143 4.26861 1.55382 4.30636 1.46276C4.34411 1.3717 4.39945 1.28897 4.4692 1.21932C4.53895 1.14966 4.62174 1.09444 4.71285 1.0568C4.80396 1.01917 4.9016 0.999869 5.00017 1Z" fill="#9A1618"/>
</svg>
