<svg width="30" height="30" viewBox="0 0 30 30" fill="none" xmlns="http://www.w3.org/2000/svg">
<g clip-path="url(#clip0_177_196)">
<path d="M25.0001 16.2501H1.25011C1.06391 16.2467 0.87931 16.2849 0.709794 16.362C0.540277 16.4391 0.390129 16.5531 0.270322 16.6957C0.150516 16.8382 0.064078 17.0058 0.0173266 17.186C-0.0294248 17.3663 -0.0353087 17.5547 0.00010513 17.7376C0.380939 19.6909 1.23867 21.5199 2.497 23.0617C3.75532 24.6035 5.37523 25.8104 7.2126 26.5751C7.35742 26.6338 7.47496 26.7447 7.54207 26.8858C7.60917 27.027 7.62095 27.1882 7.5751 27.3376C7.44971 27.7976 7.39078 28.2733 7.4001 28.7501C7.4001 29.0816 7.5318 29.3995 7.76622 29.6339C8.00064 29.8684 8.31858 30.0001 8.65011 30.0001H17.6126C17.9441 30.0001 18.2621 29.8684 18.4965 29.6339C18.7309 29.3995 18.8626 29.0816 18.8626 28.7501C18.8597 28.2715 18.7882 27.7958 18.6501 27.3376C18.6071 27.1881 18.6203 27.0281 18.687 26.8877C18.7538 26.7473 18.8696 26.6361 19.0126 26.5751C20.8547 25.8137 22.4796 24.6083 23.7425 23.0662C25.0053 21.5242 25.8668 19.6935 26.2501 17.7376C26.2855 17.5547 26.2796 17.3663 26.2329 17.186C26.1861 17.0058 26.0997 16.8382 25.9799 16.6957C25.8601 16.5531 25.7099 16.4391 25.5404 16.362C25.3709 16.2849 25.1863 16.2467 25.0001 16.2501ZM29.8376 5.65005L27.7626 1.10006C27.6618 0.875497 27.5169 0.673478 27.3366 0.50599C27.1562 0.338503 26.944 0.208961 26.7126 0.125055C26.4872 0.0294788 26.2449 -0.0197754 26.0001 -0.0197754C25.7553 -0.0197754 25.513 0.0294788 25.2876 0.125055L18.1751 3.40006C17.7974 3.56942 17.5024 3.88173 17.3547 4.26842C17.2071 4.6551 17.2189 5.08457 17.3876 5.46255L19.7251 10.5876C19.8487 10.8614 20.0491 11.0934 20.3021 11.2554C20.5551 11.4174 20.8497 11.5024 21.1501 11.5001C21.3701 11.5015 21.5878 11.4546 21.7876 11.3626L28.9001 8.13756C29.3529 7.9304 29.7054 7.55275 29.881 7.08684C30.0566 6.62093 30.041 6.10451 29.8376 5.65005ZM11.2501 8.12506C11.2501 8.62234 11.4476 9.09925 11.7993 9.45088C12.1509 9.80251 12.6278 10.0001 13.1251 10.0001C13.6224 10.0001 14.0993 9.80251 14.4509 9.45088C14.8026 9.09925 15.0001 8.62234 15.0001 8.12506C15.0001 7.62777 14.8026 7.15086 14.4509 6.79923C14.0993 6.4476 13.6224 6.25006 13.1251 6.25006C12.6278 6.25006 12.1509 6.4476 11.7993 6.79923C11.4476 7.15086 11.2501 7.62777 11.2501 8.12506ZM13.7501 12.5001C13.7501 12.7463 13.7986 12.9901 13.8928 13.2176C13.9871 13.4451 14.1252 13.6518 14.2993 13.8259C14.4734 14 14.6801 14.1381 14.9076 14.2323C15.1351 14.3266 15.3789 14.3751 15.6251 14.3751C15.8713 14.3751 16.1152 14.3266 16.3426 14.2323C16.5701 14.1381 16.7768 14 16.9509 13.8259C17.125 13.6518 17.2632 13.4451 17.3574 13.2176C17.4516 12.9901 17.5001 12.7463 17.5001 12.5001C17.5001 12.2538 17.4516 12.01 17.3574 11.7825C17.2632 11.555 17.125 11.3483 16.9509 11.1742C16.7768 11.0001 16.5701 10.862 16.3426 10.7678C16.1152 10.6736 15.8713 10.6251 15.6251 10.6251C15.3789 10.6251 15.1351 10.6736 14.9076 10.7678C14.6801 10.862 14.4734 11.0001 14.2993 11.1742C14.1252 11.3483 13.9871 11.555 13.8928 11.7825C13.7986 12.01 13.7501 12.2538 13.7501 12.5001ZM8.7501 12.5001C8.7501 12.9973 8.94765 13.4742 9.29928 13.8259C9.65091 14.1775 10.1278 14.3751 10.6251 14.3751C11.1224 14.3751 11.5993 14.1775 11.9509 13.8259C12.3026 13.4742 12.5001 12.9973 12.5001 12.5001C12.5001 12.0028 12.3026 11.5259 11.9509 11.1742C11.5993 10.8226 11.1224 10.6251 10.6251 10.6251C10.1278 10.6251 9.65091 10.8226 9.29928 11.1742C8.94765 11.5259 8.7501 12.0028 8.7501 12.5001Z" fill="#9A1C1E"/>
</g>
<defs>
<clipPath id="clip0_177_196">
<rect width="30" height="30" fill="white"/>
</clipPath>
</defs>
</svg>
