<svg width="1071" height="399" viewBox="0 0 1071 399" fill="none" xmlns="http://www.w3.org/2000/svg">
<path d="M924.995 245.344C923.292 245.344 927.123 237.558 929.252 233.664C921.802 230.478 922.866 221.986 924.995 219.862C926.698 218.163 937.057 221.986 942.023 224.109C943.797 219.862 947.557 210.943 948.409 209.244C949.26 207.545 953.73 207.12 955.858 207.12C957.277 203.935 960.328 197.14 961.18 195.44C962.031 193.741 970.758 194.732 975.015 195.44C978.421 174.205 994.172 175.266 1001.62 178.452C1003.4 183.053 1010.99 192.68 1027.16 194.378C1047.39 196.502 1046.32 200.749 1062.28 207.12C1078.25 213.491 1067.61 251.715 1066.54 252.777C1065.48 253.838 1064.41 284.63 1066.54 285.692C1068.67 286.754 1069.73 304.804 1067.61 304.804C1065.9 304.804 1065.48 308.343 1065.48 310.113C1071.86 310.113 1070.8 329.225 1068.67 329.225C1066.54 329.225 1065.48 334.534 1066.54 335.596C1067.61 336.658 1069.73 364.264 1065.48 366.387C1061.22 368.511 1043.13 347.275 1041 345.152C1039.3 343.453 1019.71 344.444 1010.14 345.152C1005.88 349.399 995.875 356.407 989.915 350.461C982.465 343.028 995.236 334.534 996.3 334.534C997.152 334.534 1002.33 326.748 1004.81 322.854C1013.33 325.403 1014.04 321.793 1013.33 319.669L1009.07 315.422C1007.37 313.723 1009.07 309.759 1010.14 307.989C1004.81 306.928 1003.75 291.001 1002.69 291.001C1001.83 291.001 1001.62 284.63 1001.62 281.445C995.662 281.445 985.658 270.119 981.401 264.456C978.917 263.748 972.674 262.757 967.565 264.456C962.457 266.155 953.375 256.67 949.473 251.715C923.93 254.9 927.123 245.344 924.995 245.344Z" fill="#9A1C1E" fill-opacity="0.5"/>
<path d="M953.729 181.638C946.067 178.24 939.894 180.222 937.765 181.638C937.765 184.187 943.442 185.531 946.28 185.885C968.629 196.503 967.565 183.761 965.436 185.885C963.308 188.008 963.308 185.885 953.729 181.638Z" fill="#9A1C1E" fill-opacity="0.5"/>
<path d="M955.858 171.02C942.236 168.472 938.12 160.756 937.765 157.217C937.765 152.97 943.442 154.739 946.28 156.155C957.348 166.348 957.277 170.312 955.858 171.02Z" fill="#9A1C1E" fill-opacity="0.5"/>
<path d="M924.995 162.526C923.293 161.676 920.028 163.588 918.609 164.649L919.673 167.835C922.511 168.189 928.4 168.684 929.252 167.835C930.317 166.773 927.123 163.588 924.995 162.526Z" fill="#9A1C1E" fill-opacity="0.5"/>
<path d="M841.982 172.082C837.725 172.931 834.532 175.975 833.467 177.391C829.21 179.939 843.755 179.868 851.56 179.515C851.915 181.638 852.624 186.523 852.624 189.071C852.624 191.619 859.01 190.841 862.203 190.133C866.46 202.874 888.1 200.397 898.388 197.565V202.874C896.969 201.812 893.705 200.326 892.002 202.874C890.299 205.422 887.035 206.767 885.616 207.121C884.197 203.582 880.082 197.99 874.974 203.936C869.865 209.882 865.75 209.245 864.331 208.183C854.753 203.936 855.817 209.245 854.753 213.492C853.901 216.89 867.169 224.818 873.909 228.357C873.909 233.666 873.909 241.098 881.359 243.222C888.809 245.345 887.745 234.728 887.745 229.419C887.745 225.172 892.002 226.233 894.13 227.295C894.982 232.392 899.452 236.497 901.58 237.913C904.135 243.01 916.125 241.452 921.801 240.037C925.207 237.488 921.801 234.02 919.673 232.604C914.351 226.233 919.673 219.862 919.673 217.739C919.673 215.616 919.673 206.059 917.544 204.998C915.416 203.936 915.416 208.183 911.159 210.307C907.753 212.005 905.483 206.059 904.773 202.874C905.837 192.61 907.753 170.171 906.902 162.526C906.05 154.881 890.938 156.509 883.488 158.279C881.005 155.448 874.761 149.572 869.653 148.723C864.544 147.873 859.719 155.447 857.946 159.34C857.591 158.633 854.966 157.641 847.303 159.34C839.64 161.039 840.563 168.543 841.982 172.082Z" fill="#9A1C1E" fill-opacity="0.5"/>
<path d="M761.097 214.554C756.84 221.349 763.581 220.924 767.483 219.863C765.355 226.233 770.675 229.419 773.868 230.48C777.061 231.542 782.382 229.419 783.447 226.233C784.298 223.685 786.639 223.756 787.704 224.11C788.768 226.233 791.322 230.693 793.025 231.542C794.728 232.392 797.282 228.357 798.346 226.233C804.306 221.137 808.634 224.11 810.053 226.233C820.696 240.037 828.146 236.851 831.338 234.728C833.893 233.029 828.855 228.357 826.017 226.233C825.662 223.756 824.74 218.164 823.889 215.616C823.037 213.067 815.02 213.138 811.117 213.492C807.925 211.368 803.668 209.245 800.475 209.245C797.921 209.245 795.863 211.368 795.153 212.43C785.575 210.307 765.354 207.758 761.097 214.554Z" fill="#9A1C1E" fill-opacity="0.5"/>
<path d="M727.041 214.554C725.338 213.704 721.365 218.447 719.591 220.924C719.236 220.57 718.526 221.561 718.526 228.357C718.526 236.851 733.426 236.851 737.683 235.789C741.94 234.728 746.197 228.357 746.197 223.048C746.197 218.801 740.521 219.155 737.683 219.863C737.683 217.739 729.169 215.616 727.041 214.554Z" fill="#9A1C1E" fill-opacity="0.5"/>
<path d="M673.827 116.87C671.273 120.267 663.539 119.701 659.992 118.993C658.927 112.624 646.157 113.683 644.029 113.683C641.9 113.683 642.964 116.868 641.9 116.87C641.049 116.871 640.126 115.453 639.772 114.745C636.579 112.975 629.768 110.285 628.065 113.683C626.362 117.081 623.808 117.223 622.743 116.87C622.743 112.623 613.52 111.56 608.908 111.559C608.553 110.144 606.141 107.312 599.33 107.312C592.518 107.312 591.525 115.1 591.88 118.993C574.852 116.446 568.466 144.83 567.402 159.34C559.739 161.888 558.533 178.806 558.888 186.946C554.63 190.344 552.857 201.103 552.502 206.058C540.582 213.703 545.407 220.569 549.309 223.047C550.16 236.638 558.887 235.08 563.144 232.603C564.847 247.893 562.435 253.131 561.016 253.839C560.661 261.625 559.951 278.047 559.951 281.445C559.951 285.692 564.209 285.692 578.044 284.63C591.879 283.569 585.494 242.159 583.365 231.541C581.237 220.923 589.751 209.244 595.072 210.305C600.394 211.367 594.008 221.985 594.008 226.232C594.008 229.63 605.36 240.389 611.036 245.344C610.681 247.468 610.185 252.989 611.036 258.086C612.1 264.456 621.679 255.962 621.679 261.271C621.679 265.518 626.645 266.58 629.129 266.58C628.774 268.35 628.916 272.314 632.321 274.012C635.727 275.711 639.417 266.934 640.836 262.333C641.545 264.102 642.751 267.642 641.9 267.642C640.836 267.642 638.707 275.074 638.707 277.198C638.707 279.321 647.221 277.198 649.35 277.198C651.478 277.198 650.414 258.086 649.35 253.839C648.498 250.441 644.738 252.423 642.964 253.839C644.028 255.608 644.667 258.935 638.707 258.086C632.747 257.236 633.386 253.485 634.45 251.715H645.093C648.498 251.715 647.931 245.344 647.221 242.159C641.9 239.327 632.109 231.541 635.514 223.047C639.771 212.429 622.743 203.935 620.615 194.379C618.912 186.734 635.514 174.913 644.028 169.958H653.607C657.864 169.958 663.185 160.402 658.928 156.154C655.522 152.757 644.738 155.447 639.771 157.216C633.031 156.862 619.125 156.154 617.422 156.154C615.293 156.154 608.908 166.772 598.265 171.019C589.751 174.417 585.494 158.278 584.429 149.784C581.023 136.193 590.105 132.795 595.072 132.795C595.072 134.919 611.036 135.981 611.036 132.795C611.036 130.247 620.259 130.318 624.871 130.672C631.257 137.042 664.249 135.981 666.377 135.981C668.506 135.981 712.141 106.251 703.627 98.8182C696.815 92.8723 688.017 103.42 684.47 109.437C681.916 106.889 679.149 108.375 678.084 109.437C677.73 110.499 676.382 113.472 673.827 116.87Z" fill="#9A1C1E" fill-opacity="0.5"/>
<path d="M327.942 91.3856C331.844 91.0317 340.288 92.0227 342.842 98.8181L342.842 98.8184C346.035 107.313 349.228 115.807 355.613 114.745C361.999 113.683 382.22 117.93 386.477 113.683C390.734 109.436 403.505 96.6947 407.762 97.7565C411.168 98.6059 418.405 105.189 421.597 108.374C424.081 108.374 429.473 107.737 431.176 105.189C433.304 102.004 435.433 102.004 439.69 100.942C443.096 100.092 448.914 100.588 451.397 100.942C453.171 95.6329 457.57 84.8027 460.975 83.9533C460.266 79.7061 459.485 70.5748 462.039 68.0265C464.594 65.4782 470.199 61.3019 472.682 59.5322C474.456 51.7458 478.855 35.7483 482.26 34.0494C486.518 31.9259 513.124 29.8023 516.317 32.9876C519.51 36.173 525.895 48.9138 518.445 51.0374C517.381 51.7453 515.253 52.9486 515.253 52.0992C515.253 51.0374 509.931 60.5935 520.574 62.717C529.088 64.4159 533.345 88.9077 534.409 100.941C542.214 106.25 556.12 117.717 549.309 121.115C542.498 124.513 537.957 119.699 536.538 116.868C529.798 122.885 517.168 137.679 520.574 148.722C524.831 162.525 520.574 163.587 518.445 163.587C516.743 163.587 513.479 162.879 512.06 162.525C509.931 169.957 503.546 184.61 495.032 183.76C494.322 186.238 493.967 192.042 498.224 195.44C502.481 198.838 496.451 206.058 492.903 209.243C493.967 219.507 494.606 239.61 488.646 237.911C482.686 236.213 476.939 231.541 474.811 229.417C469.489 236.85 457.57 250.016 452.461 243.22C447.353 236.425 446.785 230.479 447.14 228.355C441.464 228.709 429.686 228.78 427.983 226.232C426.28 223.683 420.178 218.799 417.34 216.676C415.212 219.153 410.103 224.108 406.698 224.108C402.441 224.108 388.605 236.85 385.412 226.232C383.294 219.188 382.981 217.012 383.139 216.676C372.449 216.67 351.356 216.027 351.356 213.49C351.356 210.305 349.227 193.316 342.842 193.316C343.551 186.946 344.119 174.204 340.713 174.204C337.308 174.204 331.49 171.373 329.006 169.957C328.297 167.126 327.516 161.038 330.071 159.339C325.814 157.57 317.725 153.181 319.428 149.783C321.131 146.386 323.685 142.705 324.749 141.289C325.813 139.165 327.303 134.918 324.749 134.918C321.556 134.918 316.235 141.289 317.299 131.733C318.364 122.177 318.364 93.5096 327.942 91.3856Z" fill="#9A1C1E" fill-opacity="0.5"/>
<path d="M36.3332 6.44249C24.4135 0.496494 8.66236 -0.282147 2.27678 0.0717808C-7.08875 12.8125 14.6932 31.5716 26.7549 39.3586C24.6263 46.7911 33.1404 52.1 35.269 51.0382C36.9718 50.1888 44.4926 53.5157 48.0401 55.2854V69.0885C48.0401 70.7874 54.4257 71.92 57.6185 72.2739C58.328 76.875 59.9599 86.2895 60.8113 87.1389C61.8756 88.2007 70.3897 87.1389 71.454 86.0771C72.3054 85.2277 80.3228 92.0939 84.2252 95.6331C81.6709 105.826 85.9989 121.116 88.4822 127.487C97.3511 135.981 115.089 154.031 115.089 158.278C115.089 162.526 128.57 182.699 135.31 192.255C133.536 196.149 131.053 204.147 135.31 204.997C139.567 205.846 149.145 217.384 153.402 223.047C151.274 236.85 177.88 249.592 176.816 254.901C175.965 259.148 187.104 261.625 192.78 262.333C193.844 265.519 214.065 287.816 220.451 287.816C226.837 287.816 223.644 285.693 223.644 283.569C223.644 281.87 232.158 282.153 236.415 282.507C237.124 283.923 240.033 286.754 245.993 286.754C251.953 286.754 251.315 259.148 250.25 245.345C253.656 242.796 248.831 236.497 245.993 233.665C249.399 231.966 251.669 227.294 252.379 225.171C252.379 210.306 241.736 200.75 239.608 200.75C237.479 200.75 231.094 197.564 225.772 200.75C221.515 203.298 220.451 201.104 220.451 199.688C228.965 192.893 221.161 187.654 216.194 185.885C217.613 184.469 219.812 179.939 217.258 173.143C214.704 166.348 206.97 164.649 203.423 164.649C190.652 162.95 190.297 156.863 191.716 154.031C197.037 154.031 204.487 132.796 199.166 127.487C194.909 123.24 184.621 127.841 180.009 130.672C181.428 128.548 183.84 124.301 182.137 124.301C180.435 124.301 176.461 120.762 174.688 118.992C177.526 119.7 183.415 119.842 184.266 114.745C185.33 108.375 173.623 110.498 174.688 109.436C175.539 108.587 172.914 103.42 171.495 100.942C169.721 99.8803 164.684 98.1814 158.724 99.8803C152.764 101.579 144.888 96.341 141.695 93.5096C141.695 90.3242 139.567 81.83 134.246 85.0153C129.989 87.5636 127.505 85.3692 126.796 83.9535C113.173 59.3201 84.9347 43.9597 72.5182 39.3586C75.9239 38.5092 73.9373 31.9261 72.5182 28.7408C68.2612 22.37 58.8956 9.20393 55.49 7.50507C52.0844 5.80622 41.2998 6.08882 36.3332 6.44249Z" fill="#9A1C1E" fill-opacity="0.5"/>
<path d="M20.3696 69.0885C16.1126 66.5403 12.2103 66.6111 10.7913 66.965C8.66274 74.3975 26.7549 81.83 28.8838 79.7064C31.0127 77.5828 25.691 72.2739 20.3696 69.0885Z" fill="#9A1C1E" fill-opacity="0.5"/>
<path d="M51.2333 103.066C49.5305 102.216 47.6858 104.127 46.9763 105.189C45.9124 112.622 61.876 125.363 65.0688 123.24C68.2616 121.116 53.3618 104.127 51.2333 103.066Z" fill="#9A1C1E" fill-opacity="0.5"/>
<path d="M88.4822 165.711C85.0763 158.915 81.3872 160.756 79.9685 162.526C77.8399 165.711 79.9685 168.896 79.9685 172.082C79.9685 175.267 91.6754 185.885 95.9324 184.823C100.189 183.761 96.9967 179.514 93.8039 178.452C90.6111 177.391 92.7396 174.205 88.4822 165.711Z" fill="#9A1C1E" fill-opacity="0.5"/>
<path d="M244.929 309.052C244.929 311.6 254.863 314.361 259.829 315.422C260.539 316.13 261.958 319.033 261.958 324.979C261.958 330.925 283.952 330.995 294.95 330.287C297.504 335.384 326.523 333.827 340.713 332.411C350.079 346.002 377.253 347.276 389.669 346.214C393.926 354.708 414.148 352.585 415.212 350.461C416.063 348.762 423.371 350.461 426.919 351.523C427.983 353.647 432.027 357.681 439.69 356.832C449.268 355.77 447.14 335.596 448.204 333.473C449.268 331.349 441.818 328.164 440.754 331.349C439.69 334.535 433.304 334.535 430.112 333.473C426.919 332.411 417.34 330.287 412.019 329.226C407.762 328.376 408.826 322.501 409.89 319.67C436.284 322.218 439.335 318.608 437.561 316.484C431.601 305.442 420.178 306.22 415.212 307.99C413.509 311.388 404.569 310.821 400.312 310.114C398.609 306.716 389.669 305.866 385.412 305.866C383.71 302.469 374.77 303.743 370.513 304.805C369.448 303.035 366.681 299.496 364.127 299.496C360.934 299.496 356.677 303.743 352.42 305.866C349.015 307.565 324.749 304.451 313.042 302.681C313.042 300.911 312.404 296.735 309.85 294.187C306.657 291.001 296.014 288.878 288.564 292.063C282.604 294.612 272.6 291.001 268.343 288.878C236.415 289.94 244.929 305.866 244.929 309.052Z" fill="#9A1C1E" fill-opacity="0.5"/>
<path d="M465.232 341.967C461.827 341.967 453.88 343.383 450.333 344.091C449.268 344.299 451.397 350.461 454.59 349.4C457.144 348.55 462.749 354.708 465.232 357.894C468.425 356.832 475.662 353.859 479.068 350.461C483.325 346.214 469.489 341.967 465.232 341.967Z" fill="#9A1C1E" fill-opacity="0.5"/>
<path d="M483.325 356.832C485.453 353.647 489.497 346.639 488.646 344.091C487.582 340.905 503.546 343.029 502.481 348.338C502.285 349.318 501.726 350.406 500.925 351.523C507.474 348.692 520.574 344.091 520.574 348.338C520.574 353.647 525.895 353.502 529.088 353.647C532.281 353.791 533.345 363.203 526.96 364.265C520.574 365.326 518.445 366.388 508.867 368.512C501.204 370.211 499.289 359.213 499.289 353.502C495.29 357.803 488.775 361.83 486.518 361.079C483.963 360.23 483.325 357.894 483.325 356.832Z" fill="#9A1C1E" fill-opacity="0.5"/>
<path d="M537.602 343.029C535.899 340.481 529.798 339.844 526.96 339.844C522.703 340.905 525.895 343.029 525.895 346.214C525.895 348.762 535.828 351.523 540.795 352.585C540.44 353.647 540.156 356.195 541.859 357.894C543.988 360.017 550.373 361.079 553.566 353.647C556.12 347.701 548.954 346.214 545.052 346.214C543.988 340.905 539.731 346.214 537.602 343.029Z" fill="#9A1C1E" fill-opacity="0.5"/>
<path d="M557.823 372.759C554.418 373.608 552.147 375.944 551.438 377.006C555.695 384.438 575.916 389.747 580.173 392.933C584.43 396.118 591.88 392.933 595.073 389.747C598.265 386.562 582.301 374.882 582.301 371.697C582.301 368.512 576.98 367.45 576.98 370.635C576.98 373.821 562.08 371.697 557.823 372.759Z" fill="#9A1C1E" fill-opacity="0.5"/>
<path d="M581.237 346.214C575.277 346.214 573.078 354.708 572.723 358.956C573.574 361.504 580.173 360.725 583.366 360.017C586.558 366.388 605.715 358.956 608.908 360.017C611.462 360.867 624.872 358.956 631.257 357.894C636.224 355.062 645.731 348.975 644.029 347.276C641.9 345.152 636.579 350.461 633.386 352.585C630.193 354.708 625.936 350.461 623.808 351.523C622.105 352.373 601.103 351.169 590.815 350.461C590.106 349.046 587.197 346.214 581.237 346.214Z" fill="#9A1C1E" fill-opacity="0.5"/>
<path d="M665.314 377.006C663.611 381.253 657.509 388.686 654.671 391.871C657.226 404.612 672.054 395.764 679.149 389.747C682.555 389.747 690.502 381.253 694.049 377.006C698.306 372.759 705.33 363.627 699.37 361.079C691.921 357.894 685.535 369.573 681.278 369.573C677.021 369.573 667.442 371.697 665.314 377.006Z" fill="#9A1C1E" fill-opacity="0.5"/>
</svg>
