<svg width="30" height="30" viewBox="0 0 30 30" fill="none" xmlns="http://www.w3.org/2000/svg">
<path d="M4.89258 1.46484L3.01758 5.21484V10.3125C2.97832 11.2461 3.24299 11.9499 3.82576 12.5283C4.02744 12.7256 4.28818 12.927 4.59346 13.1275L4.89258 5.21484L5.2057 13.4957C5.66145 13.7476 6.17895 13.9924 6.73289 14.2189C6.74426 14.2236 6.75615 14.228 6.76758 14.2327V5.21484L4.89258 1.46484ZM17.5879 1.46484C16.5137 1.46484 15.4395 3.6133 15.4395 5.76176C15.4395 6.79213 15.6869 7.82191 16.0626 8.61527C16.5964 8.70275 17.1722 8.82416 17.7728 8.97797C18.0303 8.51666 18.647 8.14518 20.127 7.98949V4.25256C18.7015 3.56813 17.5879 2.23828 17.5879 1.46484ZM26.1817 1.46484C26.1817 2.23828 25.068 3.56812 23.6426 4.2525V7.98961C26.1803 8.25645 26.1817 9.15727 26.1817 10.0586C27.2559 10.0586 28.3301 7.91021 28.3301 5.76176C28.3301 3.6133 27.2559 1.46484 26.1817 1.46484ZM21.1816 2.92969V10.128C21.658 10.3289 22.1271 10.5468 22.5879 10.7812V2.92969H21.1816ZM13.7402 7.20234L10.3154 10.8293L13.7402 14.2543V12.1875H14.2676C16.2744 12.1875 19.5545 12.9016 22.2016 13.9846C23.5253 14.526 24.6827 15.15 25.4469 15.8974C25.8289 16.2713 26.1217 16.6855 26.2387 17.166C26.2895 17.3747 26.2922 17.5935 26.2629 17.8113C26.7288 16.6846 26.5545 15.7301 25.9498 14.7864C25.293 13.7616 24.0818 12.7995 22.6437 12.0045C19.7676 10.4146 15.9668 9.49219 14.2676 9.49219H13.7402V7.20234ZM2.27227 11.3684C1.80645 12.4951 1.98076 13.4496 2.58545 14.3933C3.24217 15.4181 4.45342 16.3802 5.89154 17.1752C8.76756 18.7651 12.5684 19.6875 14.2676 19.6875H14.7949V21.9773L18.2197 18.3504L14.7949 14.9254V16.9922H14.2676C12.2607 16.9922 8.98066 16.2781 6.33352 15.1951C5.00988 14.6537 3.85242 14.0297 3.0883 13.2823C2.70627 12.9084 2.41342 12.4942 2.29646 12.0137C2.24566 11.805 2.24297 11.5862 2.27227 11.3684ZM21.1816 14.7206V21.5625H22.5879V15.3064C22.3291 15.1843 22.0671 15.069 21.8023 14.9607C21.6004 14.8781 21.3921 14.7987 21.1816 14.7206ZM3.01758 16.4704V18.8985H4.3752L4.42705 17.528C3.91963 17.2003 3.44432 16.8486 3.01758 16.4704ZM5.37967 18.0973L5.40996 18.8986H6.76758V18.7945C6.29555 18.579 5.83084 18.3468 5.38125 18.0984L5.37961 18.0974L5.37967 18.0973ZM1.66992 19.9533V21.0938H8.11523V19.9532L1.66992 19.9533ZM3.7207 21.9727V26.6602C3.25195 26.6602 2.08008 28.5352 4.89258 28.5352C7.70508 28.5352 6.5332 26.6602 6.06445 26.6602V21.9727H3.7207ZM21.1816 22.6172V28.125H22.5879V22.6172H21.1816Z" fill="#9A1C1E"/>
</svg>
