<svg width="30" height="30" viewBox="0 0 30 30" fill="none" xmlns="http://www.w3.org/2000/svg">
<path d="M14.9984 1.34558C12.4605 1.34558 9.42512 2.2075 7.5769 3.11042C5.61178 3.90906 4.01205 4.89214 2.87006 6.65781C1.33373 9.03296 0.587953 12.7019 1.09596 18.5404C2.55412 19.0464 3.86674 18.8952 5.21346 18.4391C4.79141 16.5115 4.85955 14.585 5.33487 13.0107C5.85471 11.2883 6.90049 9.90021 8.43366 9.66085L9.111 9.55515L9.12887 10.2405C9.14211 10.7399 9.15114 11.2599 9.15729 11.7894L9.16391 13.3326C9.15483 15.4834 9.07057 17.8032 8.85172 20.1402C10.23 20.5878 12.4716 20.8624 14.7105 20.8783L15.8343 20.864C17.9197 20.7969 19.9276 20.5099 21.1312 20.1152C20.8639 16.5334 20.8461 12.9191 20.7597 10.0098L20.7359 9.2071L21.5132 9.40867C23.0384 9.80394 24.0927 11.2119 24.6331 12.9552C25.1268 14.547 25.2082 16.4683 24.7895 18.3947C25.8405 18.7275 26.88 18.8136 27.9302 18.6833L29.0057 18.5396C29.2582 13.9405 28.6553 9.39507 27.473 7.22863L26.3953 5.66992C25.2591 4.36011 23.7985 3.61656 22.0763 2.96248C20.4272 2.11714 17.5881 1.34558 14.9984 1.34558ZM14.9984 2.09113C16.586 2.09113 18.2669 2.56591 19.7105 3.19533C18.947 3.86945 18.0062 4.33568 17.0049 4.60205L15.0851 8.83416L13.4134 4.70669C12.2502 4.47935 11.1492 3.98365 10.288 3.19732C11.7976 2.55091 13.4864 2.09113 14.9984 2.09113ZM15.1399 9.06847L15.9986 10.3708L15.1438 11.6062L14.281 10.3708L15.1399 9.06847ZM15.1399 11.9749L15.9986 13.2774L15.1438 14.5128L14.281 13.2774L15.1399 11.9749ZM15.1399 14.8435L15.9986 16.1458L15.1438 17.3813L14.281 16.1458L15.1399 14.8435ZM15.1399 17.747L15.9986 19.0494L15.1438 20.2848L14.281 19.0494L15.1399 17.747ZM21.2715 21.1001C19.6553 21.6023 17.4017 21.8106 15.0918 21.8216C12.7692 21.8326 10.4551 21.6395 8.75909 21.1143C8.70919 21.5508 8.65395 21.9866 8.59338 22.4217C10.0525 22.943 12.5897 23.2549 15.0715 23.2429C17.5513 23.2309 20.0479 22.8902 21.4064 22.4039C21.3566 21.9698 21.3116 21.5352 21.2715 21.1001ZM21.6061 23.3215C19.9479 23.8858 17.564 24.119 15.1198 24.1307C14.4023 24.1342 13.6858 24.1178 12.9869 24.0786L11.9535 24.0016C10.6435 23.8791 9.43356 23.6636 8.45036 23.3273C8.2311 24.6549 7.95664 25.9608 7.6158 27.2153C8.13336 27.4744 8.69411 27.6964 9.2869 27.8835L10.2574 28.1515C14.1324 29.0817 19.0297 28.6786 22.3842 27.2927C22.0528 26.0481 21.8006 24.7082 21.6061 23.3215Z" fill="#9A1C1E"/>
</svg>
